<svg xmlns="http://www.w3.org/2000/svg" xmlns:xlink="http://www.w3.org/1999/xlink" viewBox="0 0 64.05 71.81"><defs><style>.cls-1,.cls-4,.cls-6{fill:#389bf3;}.cls-1,.cls-2{opacity:0.8;}.cls-2,.cls-5,.cls-8{fill:#ff9d23;}.cls-3,.cls-7{fill:#aa7dff;}.cls-6,.cls-7,.cls-8{opacity:0.5;}.cls-9{fill:#fff;}.cls-10,.cls-11{fill:#cec1bc;}.cls-11,.cls-15,.cls-16,.cls-17{fill-rule:evenodd;}.cls-12,.cls-13,.cls-16{fill:none;stroke:#732e54;stroke-miterlimit:10;stroke-width:2px;}.cls-13{stroke-linecap:round;}.cls-14{fill:#732e54;}.cls-15{fill:url(#lukaszadam_gradient);}.cls-17{fill:url(#lukaszadam_gradient-2);}</style><linearGradient id="lukaszadam_gradient" x1="18.02" y1="41.61" x2="40.71" y2="41.61" gradientUnits="userSpaceOnUse"><stop offset="0.04" stop-color="#f27b40"/><stop offset="1" stop-color="#ec697d"/></linearGradient><linearGradient id="lukaszadam_gradient-2" x1="32.85" y1="38.63" x2="62.1" y2="38.63" xlink:href="#lukaszadam_gradient"/></defs><title>Asset 25</title><g id="Layer_2" data-name="Layer 2"><g id="Layer_1-2" data-name="Layer 1"><path class="cls-1" d="M53.75,19.53l-20.07,13a2.64,2.64,0,1,1-2.88-4.43l20.07-13a2.64,2.64,0,0,1,2.88,4.43Z"/><path class="cls-2" d="M26.93,37,13.51,45.69a2.64,2.64,0,1,1-2.88-4.43l13.42-8.72A2.64,2.64,0,0,1,26.93,37Z"/><path class="cls-3" d="M44.32,16.46,24.26,29.51a2.64,2.64,0,1,1-2.88-4.43L41.44,12a2.64,2.64,0,1,1,2.88,4.43Z"/><path class="cls-4" d="M17.5,33.9,4.08,42.62A2.64,2.64,0,0,1,1.2,38.19l13.42-8.72A2.64,2.64,0,1,1,17.5,33.9Z"/><path class="cls-5" d="M50.38,12.53l-.13.08a2.64,2.64,0,0,1-2.88-4.43l.13-.08a2.64,2.64,0,0,1,2.88,4.43Z"/><path class="cls-6" d="M52.73,29.39l-20.07,13A2.65,2.65,0,1,1,29.78,38L49.85,25a2.64,2.64,0,0,1,2.88,4.43Z"/><path class="cls-7" d="M25.91,46.83,12.49,55.55a2.64,2.64,0,1,1-2.88-4.43L23,42.39a2.65,2.65,0,0,1,2.88,4.44Z"/><path class="cls-8" d="M58.78,25.46l-.12.08a2.65,2.65,0,0,1-2.88-4.44L55.9,21a2.65,2.65,0,1,1,2.88,4.44Z"/><rect class="cls-9" x="2.05" y="1.36" width="37.52" height="69.81" rx="5.9"/><path class="cls-10" d="M39.63,5.5v62a2.3,2.3,0,0,1-2.3,2.3L6.71,70.89c-2.38,0-3.48-2.63-4.26-4.75a5.48,5.48,0,0,0,1.91.34H34a2.3,2.3,0,0,0,2.3-2.3v-62A5.43,5.43,0,0,0,36,.31,5.52,5.52,0,0,1,39.63,5.5Z"/><circle class="cls-9" cx="16.52" cy="22.51" r="7.67"/><path class="cls-11" d="M24.43,22.76a7.67,7.67,0,0,1-15.34,0,6.79,6.79,0,0,1,.27-2,7.67,7.67,0,0,0,14.82,0A7.55,7.55,0,0,1,24.43,22.76Z"/><circle class="cls-12" cx="17.22" cy="23.21" r="7.67"/><rect class="cls-12" x="2.76" y="1" width="37.52" height="69.81" rx="4.03"/><line class="cls-13" x1="12.83" y1="6.82" x2="25.28" y2="6.82"/><circle class="cls-14" cx="29.02" cy="6.81" r="1.19"/><line class="cls-13" x1="22.58" y1="46.54" x2="22.71" y2="59.38"/><line class="cls-13" x1="26.63" y1="46.54" x2="26.76" y2="55.9"/><circle class="cls-14" cx="22.75" cy="62.94" r="0.96"/><line class="cls-13" x1="49.2" y1="46.54" x2="49.33" y2="54.3"/><line class="cls-13" x1="53.25" y1="46.54" x2="53.38" y2="57.12"/><circle class="cls-14" cx="49.26" cy="58.04" r="0.96"/><polygon class="cls-15" points="29.36 31.79 35.04 41.61 40.71 51.44 29.36 51.44 18.02 51.44 23.69 41.61 29.36 31.79"/><polygon class="cls-16" points="29.84 31.67 35.52 41.49 41.19 51.32 29.84 51.32 18.5 51.32 24.17 41.49 29.84 31.67"/><polygon class="cls-17" points="47.48 25.66 54.78 38.63 62.09 51.61 47.48 51.61 32.85 51.61 40.16 38.63 47.48 25.66"/><polygon class="cls-16" points="47.72 25.4 55.03 38.38 62.34 51.35 47.72 51.35 33.1 51.35 40.41 38.38 47.72 25.4"/></g></g></svg>