<svg xmlns="http://www.w3.org/2000/svg" xmlns:xlink="http://www.w3.org/1999/xlink" viewBox="0 0 59.98 71.95"><defs><style>.cls-1,.cls-4,.cls-6{fill:#389bf3;}.cls-1,.cls-2{opacity:0.8;}.cls-2,.cls-5,.cls-8{fill:#ff9d23;}.cls-3,.cls-7{fill:#aa7dff;}.cls-19,.cls-6,.cls-7,.cls-8{opacity:0.5;}.cls-9{fill:#fff;}.cls-10{fill:#cec1bc;}.cls-11{fill:url(#lukaszadam_gradient);}.cls-12,.cls-14,.cls-15,.cls-16,.cls-17,.cls-18,.cls-19,.cls-20{fill:none;stroke-miterlimit:10;}.cls-12,.cls-17,.cls-18,.cls-19,.cls-20{stroke:#732e54;}.cls-12,.cls-14,.cls-15,.cls-16{stroke-linecap:round;}.cls-12,.cls-17{stroke-width:2px;}.cls-13{fill:#732e54;}.cls-14,.cls-15,.cls-16{stroke:#fff;}.cls-14{opacity:0.3;}.cls-16{opacity:0.6;}.cls-20{opacity:0.2;}</style><linearGradient id="lukaszadam_gradient" x1="20.63" y1="56.42" x2="33.89" y2="56.42" gradientUnits="userSpaceOnUse"><stop offset="0.04" stop-color="#f27b40"/><stop offset="1" stop-color="#ec697d"/></linearGradient></defs><title>Asset 21</title><g id="Layer_2" data-name="Layer 2"><g id="Layer_1-2" data-name="Layer 1"><path class="cls-1" d="M53.75,24.94,33.68,38a2.64,2.64,0,1,1-2.88-4.43l20.07-13a2.64,2.64,0,0,1,2.88,4.43Z"/><path class="cls-2" d="M26.93,42.38,13.51,51.1a2.64,2.64,0,1,1-2.88-4.43l13.42-8.73a2.65,2.65,0,0,1,2.88,4.44Z"/><path class="cls-3" d="M44.32,21.87,24.26,34.92a2.65,2.65,0,0,1-2.88-4.44l20.06-13a2.64,2.64,0,1,1,2.88,4.43Z"/><path class="cls-4" d="M17.5,39.31,4.08,48A2.64,2.64,0,0,1,1.2,43.6l13.42-8.73a2.65,2.65,0,0,1,2.88,4.44Z"/><path class="cls-5" d="M50.38,17.94l-.13.08a2.65,2.65,0,0,1-2.88-4.44l.13-.08a2.65,2.65,0,0,1,2.88,4.44Z"/><path class="cls-6" d="M52.73,34.8l-20.07,13a2.64,2.64,0,1,1-2.88-4.43l20.07-13a2.64,2.64,0,0,1,2.88,4.43Z"/><path class="cls-7" d="M25.91,52.23,12.49,61a2.65,2.65,0,1,1-2.88-4.44L23,47.8a2.64,2.64,0,0,1,2.88,4.43Z"/><path class="cls-8" d="M58.78,30.86l-.12.08a2.64,2.64,0,1,1-2.88-4.43l.12-.08a2.64,2.64,0,1,1,2.88,4.43Z"/><rect class="cls-9" x="2.77" y="0.39" width="49.06" height="23.54" rx="4.51"/><path class="cls-10" d="M51.57,14.94V19a5.12,5.12,0,0,1-5.12,5.12H7.63A5.12,5.12,0,0,1,2.51,19V14.94a5.12,5.12,0,0,0,5.12,5.12H46.45A5.12,5.12,0,0,0,51.57,14.94Z"/><rect class="cls-11" x="20.63" y="41.66" width="13.26" height="29.5" rx="1.73"/><line class="cls-12" x1="14.16" y1="24.96" x2="14.28" y2="33.52"/><line class="cls-12" x1="17.93" y1="24.96" x2="18.05" y2="30.28"/><circle class="cls-13" cx="14.31" cy="36.84" r="0.9"/><line class="cls-12" x1="38.96" y1="24.96" x2="39.08" y2="28.79"/><line class="cls-12" x1="42.74" y1="24.96" x2="42.86" y2="34.82"/><circle class="cls-13" cx="39.02" cy="32.27" r="0.9"/><line class="cls-14" x1="28.42" y1="67.52" x2="29.52" y2="67.52"/><polyline class="cls-15" points="23.54 60.67 23.54 67.52 26.03 67.52"/><line class="cls-16" x1="23.54" y1="55.66" x2="23.54" y2="56.99"/><line class="cls-15" x1="23.54" y1="48.47" x2="23.54" y2="52.11"/><rect class="cls-17" x="2.7" y="1" width="49.06" height="23.54" rx="4.51"/><line class="cls-17" x1="27.23" y1="24.43" x2="27.23" y2="42.17"/><rect class="cls-17" x="20.6" y="41.44" width="13.26" height="29.5" rx="1.73"/><line class="cls-18" x1="7.65" y1="5.09" x2="20.91" y2="5.09"/><line class="cls-19" x1="22.81" y1="5.09" x2="27.13" y2="5.09"/><line class="cls-20" x1="28.99" y1="5.09" x2="32.3" y2="5.09"/></g></g></svg>