<svg xmlns="http://www.w3.org/2000/svg" xmlns:xlink="http://www.w3.org/1999/xlink" viewBox="0 0 59.98 68.87"><defs><style>.cls-1{fill:#732e54;}.cls-2{fill:#fff;}.cls-3,.cls-6,.cls-8{fill:#389bf3;}.cls-3,.cls-4{opacity:0.8;}.cls-10,.cls-4,.cls-7{fill:#ff9d23;}.cls-5,.cls-9{fill:#aa7dff;}.cls-10,.cls-8,.cls-9{opacity:0.5;}.cls-11{fill:#cec1bc;}.cls-12,.cls-14,.cls-15,.cls-16{fill:none;stroke-linecap:round;stroke-miterlimit:10;}.cls-12{stroke:#732e54;stroke-width:2px;}.cls-13{fill:url(#lukaszadam_gradient);}.cls-14,.cls-15,.cls-16{stroke:#fff;}.cls-14{opacity:0.3;}.cls-16{opacity:0.6;}</style><linearGradient id="lukaszadam_gradient" x1="3.14" y1="37.01" x2="42.28" y2="37.01" gradientUnits="userSpaceOnUse"><stop offset="0.04" stop-color="#f27b40"/><stop offset="1" stop-color="#ec697d"/></linearGradient></defs><title>Asset 18</title><g id="Layer_2" data-name="Layer 2"><g id="Layer_1-2" data-name="Layer 1"><path class="cls-1" d="M13.77,14.89a3,3,0,0,1-3.61-2.23l-2.1-9A3,3,0,0,1,13.9,2.31l2.1,9A3,3,0,0,1,13.77,14.89Z"/><path class="cls-2" d="M38.77,14.8H4.3l1.38-3.88a.75.75,0,0,1,.72-.51H36.68a.76.76,0,0,1,.72.51Z"/><path class="cls-3" d="M53.75,28,33.68,41a2.65,2.65,0,1,1-2.88-4.44l20.07-13A2.64,2.64,0,0,1,53.75,28Z"/><path class="cls-4" d="M26.93,45.42,13.51,54.14a2.64,2.64,0,1,1-2.88-4.43L24.05,41a2.65,2.65,0,0,1,2.88,4.44Z"/><path class="cls-5" d="M44.32,24.91,24.26,38a2.65,2.65,0,0,1-2.88-4.44l20.06-13a2.64,2.64,0,1,1,2.88,4.43Z"/><path class="cls-6" d="M17.5,42.35,4.08,51.07A2.64,2.64,0,0,1,1.2,46.64l13.42-8.72a2.64,2.64,0,1,1,2.88,4.43Z"/><path class="cls-7" d="M50.38,21l-.13.08a2.65,2.65,0,0,1-2.88-4.44l.13-.08A2.65,2.65,0,0,1,50.38,21Z"/><path class="cls-8" d="M52.73,37.84l-20.07,13a2.64,2.64,0,1,1-2.88-4.43l20.07-13a2.64,2.64,0,0,1,2.88,4.43Z"/><path class="cls-9" d="M25.91,55.27,12.49,64a2.64,2.64,0,1,1-2.88-4.43L23,50.84a2.64,2.64,0,0,1,2.88,4.43Z"/><path class="cls-10" d="M58.78,33.9l-.12.08a2.64,2.64,0,1,1-2.88-4.43l.12-.08a2.64,2.64,0,1,1,2.88,4.43Z"/><path class="cls-2" d="M40.41,19.76l-2.9,46.57a1.84,1.84,0,0,1-1.83,1.73H10a1.85,1.85,0,0,1-1.84-1.73L5.3,19.76"/><path class="cls-11" d="M40,19.57,37.13,66.14a1.85,1.85,0,0,1-1.84,1.73H9.65a1.84,1.84,0,0,1-1.84-1.73L7.08,54.49a14.25,14.25,0,0,0,11.09,1.88c4.57-1.13,8.34-4.52,10.78-8.55s3.67-8.65,4.57-13.27a107.65,107.65,0,0,0,1.8-15Z"/><path class="cls-12" d="M40,20.57,37.13,66.14a1.85,1.85,0,0,1-1.84,1.73H9.64A1.85,1.85,0,0,1,7.8,66.14L4.91,20.57"/><path class="cls-12" d="M2.76,15.45H41.64a.74.74,0,0,1,.74.74V19.7a.74.74,0,0,1-.74.74H2.76a.89.89,0,0,1-.89-.89v-3.2A.89.89,0,0,1,2.76,15.45Z"/><path class="cls-12" d="M4.69,15.2l1.38-3.89a.78.78,0,0,1,.72-.51h12.5"/><path class="cls-12" d="M39.17,15.2l-1.38-3.89a.78.78,0,0,0-.72-.51H24.57"/><polygon class="cls-13" points="41.28 47.04 4.13 47.04 3.13 26.98 42.28 26.98 41.28 47.04"/><path class="cls-12" d="M40.23,47.14H5a1,1,0,0,1-1-1l-.9-18.06a1,1,0,0,1,1-1.05h37a1,1,0,0,1,1,1.05l-.9,18.06A1,1,0,0,1,40.23,47.14Z"/><line class="cls-14" x1="11.16" y1="43.98" x2="12.26" y2="43.98"/><path class="cls-15" d="M6.93,38.07l.26,4.43A1.58,1.58,0,0,0,8.76,44h0"/><line class="cls-16" x1="6.8" y1="34.36" x2="6.86" y2="35.69"/><line class="cls-15" x1="6.6" y1="30.53" x2="6.69" y2="32.42"/></g></g></svg>