<svg xmlns="http://www.w3.org/2000/svg" viewBox="0 0 78.02 54.8"><defs><style>.cls-1,.cls-13,.cls-14{fill:none;stroke:#732e54;stroke-miterlimit:10;}.cls-1,.cls-14{stroke-linecap:round;}.cls-1{stroke-width:6px;}.cls-2{fill:#732e54;}.cls-3,.cls-6,.cls-8{fill:#389bf3;}.cls-3,.cls-4{opacity:0.8;}.cls-10,.cls-4,.cls-7{fill:#ff9d23;}.cls-5,.cls-9{fill:#aa7dff;}.cls-10,.cls-8,.cls-9{opacity:0.5;}.cls-11{fill:#fff;}.cls-12{fill:#cec1bc;}.cls-13,.cls-14{stroke-width:2px;}</style></defs><title>Asset 20</title><g id="Layer_2" data-name="Layer 2"><g id="Layer_1-2" data-name="Layer 1"><line class="cls-1" x1="61.33" y1="25.62" x2="71.47" y2="15.48"/><polygon class="cls-2" points="78.02 8.93 76.07 16.2 74.12 23.47 68.8 18.15 63.47 12.82 70.75 10.88 78.02 8.93"/><path class="cls-3" d="M53.75,11.86,33.68,24.91a2.64,2.64,0,1,1-2.88-4.43l20.07-13a2.64,2.64,0,0,1,2.88,4.43Z"/><path class="cls-4" d="M26.93,29.3,13.51,38a2.64,2.64,0,1,1-2.88-4.43l13.42-8.72a2.64,2.64,0,0,1,2.88,4.43Z"/><path class="cls-5" d="M44.32,8.79,24.26,21.84a2.64,2.64,0,1,1-2.88-4.43l20.06-13a2.64,2.64,0,1,1,2.88,4.43Z"/><path class="cls-6" d="M17.5,26.23,4.08,35A2.64,2.64,0,0,1,1.2,30.52L14.62,21.8a2.64,2.64,0,1,1,2.88,4.43Z"/><path class="cls-7" d="M50.38,4.86l-.13.08A2.64,2.64,0,0,1,47.37.51L47.5.43a2.64,2.64,0,0,1,2.88,4.43Z"/><path class="cls-8" d="M52.73,21.72,32.66,34.77a2.65,2.65,0,0,1-2.88-4.44l20.07-13a2.64,2.64,0,0,1,2.88,4.43Z"/><path class="cls-9" d="M25.91,39.16,12.49,47.88a2.64,2.64,0,1,1-2.88-4.43L23,34.72a2.65,2.65,0,0,1,2.88,4.44Z"/><path class="cls-10" d="M58.78,17.79l-.12.08a2.65,2.65,0,0,1-2.88-4.44l.12-.08a2.65,2.65,0,1,1,2.88,4.44Z"/><path class="cls-11" d="M73.64,36.73A17.06,17.06,0,0,0,56.58,19.67a17.37,17.37,0,0,0-5.28.83,14,14,0,0,0-26.74,5.66,13.27,13.27,0,0,0,.16,2A12.85,12.85,0,0,0,26,53.8H56.83A17.05,17.05,0,0,0,73.64,36.73Z"/><path class="cls-12" d="M73.49,37.46a17.06,17.06,0,0,1-16.8,17.06H25.85a12.82,12.82,0,0,1-10.64-5.65,12.78,12.78,0,0,0,7.21,2.22H53.25A17.06,17.06,0,0,0,66.67,23.82,17,17,0,0,1,73.49,37.46Z"/><path class="cls-13" d="M73.64,36.73A17.06,17.06,0,0,0,56.58,19.67a17.37,17.37,0,0,0-5.28.83,14,14,0,0,0-26.74,5.66,13.27,13.27,0,0,0,.16,2A12.85,12.85,0,0,0,26,53.8H56.83A17.05,17.05,0,0,0,73.64,36.73Z"/><path class="cls-14" d="M25.41,28.12a12.28,12.28,0,0,1,10.18,5.41"/><path class="cls-14" d="M55.84,19.7a12.24,12.24,0,0,0-9.86,5"/></g></g></svg>