<svg xmlns="http://www.w3.org/2000/svg" xmlns:xlink="http://www.w3.org/1999/xlink" viewBox="0 0 71.27 64.92"><defs><style>.cls-1,.cls-4,.cls-6{fill:#389bf3;}.cls-1,.cls-2{opacity:0.8;}.cls-2,.cls-5,.cls-8{fill:#ff9d23;}.cls-3,.cls-7{fill:#aa7dff;}.cls-6,.cls-7,.cls-8{opacity:0.5;}.cls-12,.cls-16,.cls-17,.cls-18,.cls-9{fill:none;stroke-miterlimit:10;}.cls-12,.cls-9{stroke:#732e54;stroke-width:2px;}.cls-16,.cls-17,.cls-18,.cls-9{stroke-linecap:round;}.cls-10{fill:#fff;}.cls-11{fill:url(#lukaszadam_gradient);}.cls-13{fill:url(#lukaszadam_gradient-2);}.cls-14{fill:url(#lukaszadam_gradient-3);}.cls-15{fill:#cec1bc;fill-rule:evenodd;}.cls-16,.cls-17,.cls-18{stroke:#fff;}.cls-16{opacity:0.3;}.cls-18{opacity:0.6;}</style><linearGradient id="lukaszadam_gradient" x1="51.72" y1="34.73" x2="63.31" y2="34.73" gradientUnits="userSpaceOnUse"><stop offset="0.04" stop-color="#f27b40"/><stop offset="1" stop-color="#ec697d"/></linearGradient><linearGradient id="lukaszadam_gradient-2" x1="33.89" y1="42.97" x2="45.46" y2="42.97" xlink:href="#lukaszadam_gradient"/><linearGradient id="lukaszadam_gradient-3" x1="15.72" y1="50.55" x2="27.36" y2="50.55" xlink:href="#lukaszadam_gradient"/></defs><title>Asset 22</title><g id="Layer_2" data-name="Layer 2"><g id="Layer_1-2" data-name="Layer 1"><path class="cls-1" d="M53.75,11.86,33.68,24.91a2.64,2.64,0,1,1-2.88-4.43l20.07-13a2.64,2.64,0,0,1,2.88,4.43Z"/><path class="cls-2" d="M26.93,29.3,13.51,38a2.64,2.64,0,1,1-2.88-4.43l13.42-8.72a2.64,2.64,0,0,1,2.88,4.43Z"/><path class="cls-3" d="M44.32,8.79,24.26,21.84a2.64,2.64,0,1,1-2.88-4.43l20.06-13a2.64,2.64,0,1,1,2.88,4.43Z"/><path class="cls-4" d="M17.5,26.23,4.08,35A2.64,2.64,0,0,1,1.2,30.52L14.62,21.8a2.64,2.64,0,1,1,2.88,4.43Z"/><path class="cls-5" d="M50.38,4.86l-.13.08A2.64,2.64,0,0,1,47.37.51L47.5.43a2.64,2.64,0,0,1,2.88,4.43Z"/><path class="cls-6" d="M52.73,21.72,32.66,34.77a2.65,2.65,0,0,1-2.88-4.44l20.07-13a2.64,2.64,0,0,1,2.88,4.43Z"/><path class="cls-7" d="M25.91,39.16,12.49,47.88a2.64,2.64,0,1,1-2.88-4.43L23,34.72a2.65,2.65,0,0,1,2.88,4.44Z"/><path class="cls-8" d="M58.78,17.79l-.12.08a2.65,2.65,0,0,1-2.88-4.44l.12-.08a2.65,2.65,0,1,1,2.88,4.44Z"/><line class="cls-9" x1="16.97" y1="59.71" x2="55.53" y2="41.89"/><rect class="cls-10" x="33.86" y="21.16" width="11.57" height="38.38"/><rect class="cls-11" x="51.72" y="6.25" width="11.59" height="56.95"/><rect class="cls-12" x="51.01" y="6.97" width="12.89" height="56.95"/><rect class="cls-13" x="33.89" y="22.97" width="11.57" height="40"/><rect class="cls-12" x="33.15" y="22.06" width="12.89" height="41.86"/><rect class="cls-14" x="15.72" y="37.4" width="11.64" height="26.3"/><rect class="cls-12" x="15.3" y="37.61" width="12.89" height="26.3"/><circle class="cls-10" cx="63.4" cy="7.85" r="6.3"/><path class="cls-15" d="M69.89,8.06a6.3,6.3,0,1,1-12.59,0,5.81,5.81,0,0,1,.22-1.62,6.3,6.3,0,0,0,12.17,0A6.66,6.66,0,0,1,69.89,8.06Z"/><circle class="cls-12" cx="63.97" cy="8.43" r="6.3"/><circle class="cls-10" cx="16.1" cy="37.23" r="6.3"/><path class="cls-15" d="M22.6,37.44a6.3,6.3,0,0,1-12.6,0,5.42,5.42,0,0,1,.23-1.62,6.29,6.29,0,0,0,12.16,0A6.15,6.15,0,0,1,22.6,37.44Z"/><circle class="cls-12" cx="16.68" cy="37.8" r="6.3"/><line class="cls-16" x1="58.74" y1="60.4" x2="59.71" y2="60.4"/><polyline class="cls-17" points="54.44 54.35 54.44 60.4 56.63 60.4"/><line class="cls-18" x1="54.44" y1="49.95" x2="54.44" y2="51.11"/><line class="cls-17" x1="54.44" y1="43.6" x2="54.44" y2="46.81"/></g></g></svg>