<svg xmlns="http://www.w3.org/2000/svg" xmlns:xlink="http://www.w3.org/1999/xlink" viewBox="0 0 60.15 72.1"><defs><style>.cls-1,.cls-12,.cls-14,.cls-15,.cls-16,.cls-17{fill:none;stroke-miterlimit:10;}.cls-1,.cls-12{stroke:#732e54;}.cls-1,.cls-14,.cls-15,.cls-16,.cls-17{stroke-linecap:round;}.cls-1,.cls-12,.cls-17{stroke-width:2px;}.cls-2,.cls-5,.cls-7{fill:#389bf3;}.cls-2,.cls-3{opacity:0.8;}.cls-3,.cls-6,.cls-9{fill:#ff9d23;}.cls-4,.cls-8{fill:#aa7dff;}.cls-7,.cls-8,.cls-9{opacity:0.5;}.cls-10{fill:#fff;}.cls-11{fill:#cec1bc;}.cls-13{fill:url(#lukaszadam_gradient);}.cls-14,.cls-15,.cls-16,.cls-17{stroke:#fff;}.cls-15{opacity:0.3;}.cls-16{opacity:0.7;}</style><linearGradient id="lukaszadam_gradient" x1="16.8" y1="67.33" x2="30.4" y2="67.33" gradientUnits="userSpaceOnUse"><stop offset="0.04" stop-color="#f27b40"/><stop offset="1" stop-color="#ec697d"/></linearGradient></defs><title>Asset 23</title><g id="Layer_2" data-name="Layer 2"><g id="Layer_1-2" data-name="Layer 1"><line class="cls-1" x1="23.96" y1="4.45" x2="23.96" y2="1"/><line class="cls-1" x1="10.06" y1="4.71" x2="12.07" y2="7.2"/><line class="cls-1" x1="37.95" y1="4.71" x2="35.95" y2="7.2"/><path class="cls-2" d="M53.92,31.79,33.85,44.84A2.64,2.64,0,0,1,31,40.41L51,27.36a2.64,2.64,0,1,1,2.88,4.43Z"/><path class="cls-3" d="M27.1,49.23,13.68,58a2.64,2.64,0,1,1-2.88-4.43L24.22,44.8a2.64,2.64,0,0,1,2.88,4.43Z"/><path class="cls-4" d="M44.5,28.73l-20.07,13a2.64,2.64,0,1,1-2.88-4.43L41.61,24.29a2.65,2.65,0,0,1,2.89,4.44Z"/><path class="cls-5" d="M17.67,46.16,4.26,54.89a2.65,2.65,0,0,1-2.89-4.44l13.42-8.72a2.64,2.64,0,1,1,2.88,4.43Z"/><path class="cls-6" d="M50.55,24.79l-.12.08a2.64,2.64,0,0,1-2.89-4.43l.13-.08a2.64,2.64,0,0,1,2.88,4.43Z"/><path class="cls-7" d="M52.9,41.65,32.83,54.7A2.64,2.64,0,0,1,30,50.27L50,37.22a2.64,2.64,0,0,1,2.88,4.43Z"/><path class="cls-8" d="M26.08,59.09,12.66,67.81a2.64,2.64,0,1,1-2.88-4.43L23.2,54.66a2.64,2.64,0,0,1,2.88,4.43Z"/><path class="cls-9" d="M59,37.72l-.12.08A2.64,2.64,0,1,1,56,33.37l.12-.08A2.64,2.64,0,1,1,59,37.72Z"/><path class="cls-10" d="M6.59,37.71c1.26,3,3.2,5.66,4.82,8.49s3,6,2.81,9.23h19c-.15-3.26,1.18-6.4,2.8-9.23s3.56-5.5,4.83-8.49C46.1,25.27,38,9.49,23.73,9.71,9.44,9.49,1.36,25.27,6.59,37.71Z"/><path class="cls-11" d="M23.94,9.56V55.28h9.51c-.15-3.26,1.18-6.4,2.8-9.23s3.57-5.5,4.83-8.49C46.31,25.12,38.23,9.34,23.94,9.56Z"/><path class="cls-12" d="M6.73,38c1.27,3,3.21,5.66,4.83,8.49a19.71,19.71,0,0,1,2.76,7.59,1.86,1.86,0,0,0,1.87,1.64H31.56a1.86,1.86,0,0,0,1.87-1.64,19.39,19.39,0,0,1,2.76-7.59C37.81,43.66,39.75,41,41,38c5.23-12.44-2.85-28.22-17.14-28C9.59,9.78,1.5,25.56,6.73,38Z"/><path class="cls-13" d="M16.8,63.78H30.4a0,0,0,0,1,0,0v.3a6.8,6.8,0,0,1-6.8,6.8h0a6.8,6.8,0,0,1-6.8-6.8v-.3a0,0,0,0,1,0,0Z"/><path class="cls-12" d="M17,64H30.63a0,0,0,0,1,0,0v.3a6.8,6.8,0,0,1-6.8,6.8h0A6.8,6.8,0,0,1,17,64.3V64A0,0,0,0,1,17,64Z"/><line class="cls-1" x1="9.98" y1="63.97" x2="37.34" y2="63.97"/><line class="cls-1" x1="14.84" y1="60.07" x2="31.2" y2="60.07"/><line class="cls-1" x1="43.26" y1="14.86" x2="46.96" y2="12.62"/><line class="cls-1" x1="4.7" y1="14.86" x2="1" y2="12.62"/><line class="cls-1" x1="23.94" y1="55.28" x2="23.94" y2="47.14"/><polyline class="cls-1" points="27.49 42.03 25.73 44.48 23.97 46.93 22.22 44.48 20.46 42.03"/><path class="cls-14" d="M35.58,36.61a13.92,13.92,0,0,1-1,2.16"/><path class="cls-15" d="M37,29.93a14,14,0,0,1-.32,2.51"/><path class="cls-14" d="M29.85,15.76a14.5,14.5,0,0,1,7.23,9.62"/><path class="cls-16" d="M14.1,16.94a14.24,14.24,0,0,1,5.65-2.61,14.57,14.57,0,0,1,5.61-.14"/><path class="cls-17" d="M11.09,21.5a14.56,14.56,0,0,1,4.36-4.87"/><path class="cls-17" d="M14.51,39.67A14.57,14.57,0,0,1,10,23.91"/></g></g></svg>