<svg xmlns="http://www.w3.org/2000/svg" xmlns:xlink="http://www.w3.org/1999/xlink" viewBox="0 0 81.61 64.39"><defs><style>.cls-1,.cls-4,.cls-6{fill:#389bf3;}.cls-1,.cls-2{opacity:0.8;}.cls-2,.cls-5,.cls-8{fill:#ff9d23;}.cls-3,.cls-7{fill:#aa7dff;}.cls-6,.cls-7,.cls-8{opacity:0.5;}.cls-9{fill:none;stroke:#732e54;stroke-miterlimit:10;stroke-width:2px;}.cls-10{fill:url(#lukaszadam_gradient);}.cls-11{fill:url(#lukaszadam_gradient-2);}.cls-12{fill:url(#lukaszadam_gradient-3);}.cls-13{fill:url(#lukaszadam_gradient-4);}.cls-14{fill:url(#lukaszadam_gradient-5);}.cls-15{fill:#fff;}.cls-16{fill:#cec1bc;}</style><linearGradient id="lukaszadam_gradient" x1="217.87" y1="12.45" x2="233.34" y2="12.45" gradientTransform="translate(-185.71 10.47)" gradientUnits="userSpaceOnUse"><stop offset="0.04" stop-color="#f27b40"/><stop offset="1" stop-color="#ec697d"/></linearGradient><linearGradient id="lukaszadam_gradient-2" x1="91.22" y1="-49.27" x2="100.94" y2="-49.27" gradientTransform="translate(120.69 153.37) rotate(-90)" xlink:href="#lukaszadam_gradient"/><linearGradient id="lukaszadam_gradient-3" x1="322.04" y1="17.25" x2="331.75" y2="17.25" gradientTransform="translate(22.9 -303.72) rotate(90)" xlink:href="#lukaszadam_gradient"/><linearGradient id="lukaszadam_gradient-4" x1="91.22" y1="-111.74" x2="100.94" y2="-111.74" gradientTransform="translate(120.69 153.37) rotate(-90)" xlink:href="#lukaszadam_gradient"/><linearGradient id="lukaszadam_gradient-5" x1="322.04" y1="173.36" x2="331.75" y2="173.36" gradientTransform="translate(248.9 -303.72) rotate(90)" xlink:href="#lukaszadam_gradient"/></defs><title>Asset 26</title><g id="Layer_2" data-name="Layer 2"><g id="Layer_1-2" data-name="Layer 1"><path class="cls-1" d="M63.35,11.86,43.29,24.91a2.64,2.64,0,0,1-2.89-4.43l20.07-13a2.64,2.64,0,1,1,2.88,4.43Z"/><path class="cls-2" d="M36.53,29.3,23.11,38a2.64,2.64,0,0,1-2.88-4.43l13.42-8.72a2.64,2.64,0,1,1,2.88,4.43Z"/><path class="cls-3" d="M53.93,8.79,33.86,21.84A2.64,2.64,0,0,1,31,17.41l20.07-13a2.64,2.64,0,1,1,2.88,4.43Z"/><path class="cls-4" d="M27.11,26.23,13.69,35a2.64,2.64,0,1,1-2.88-4.43L24.23,21.8a2.64,2.64,0,0,1,2.88,4.43Z"/><path class="cls-5" d="M60,4.86l-.12.08A2.64,2.64,0,1,1,57,.51L57.1.43A2.64,2.64,0,1,1,60,4.86Z"/><path class="cls-6" d="M62.33,21.72,42.27,34.77a2.65,2.65,0,0,1-2.89-4.44l20.07-13a2.64,2.64,0,1,1,2.88,4.43Z"/><path class="cls-7" d="M35.51,39.16,22.09,47.88a2.64,2.64,0,0,1-2.88-4.43l13.42-8.73a2.65,2.65,0,1,1,2.88,4.44Z"/><path class="cls-8" d="M68.39,17.79l-.13.08a2.65,2.65,0,0,1-2.88-4.44l.12-.08a2.65,2.65,0,0,1,2.89,4.44Z"/><path class="cls-9" d="M8.53,53.39a31.24,31.24,0,0,1,62.47,0"/><rect class="cls-10" x="32.16" y="15.19" width="15.46" height="15.46" transform="translate(62.81 -16.97) rotate(90)"/><rect class="cls-9" x="32.47" y="15.5" width="15.46" height="15.46" transform="translate(63.43 -16.97) rotate(90)"/><polyline class="cls-9" points="32.19 23.07 16.37 23.07 9.59 23.07"/><line class="cls-9" x1="48.24" y1="23.07" x2="70.85" y2="23.07"/><circle class="cls-11" cx="71.42" cy="57.29" r="4.86"/><circle class="cls-9" cx="71.21" cy="57.5" r="4.86"/><circle class="cls-12" cx="5.65" cy="23.18" r="4.86"/><circle class="cls-9" cx="5.86" cy="22.97" r="4.86"/><circle class="cls-13" cx="8.95" cy="57.29" r="4.86"/><circle class="cls-9" cx="8.74" cy="57.5" r="4.86"/><circle class="cls-14" cx="75.54" cy="23.18" r="4.86"/><circle class="cls-9" cx="75.75" cy="22.97" r="4.86"/><path class="cls-15" d="M39.89,27.33a.58.58,0,0,1,1,0L50.56,45l9.19,16.86a.82.82,0,0,1-1,1.18L41.35,57.34a.86.86,0,0,0-.55,0L23.66,63.84a.83.83,0,0,1-1-1.13l8.43-17.26Z"/><path class="cls-16" d="M59,62.32,41.6,56.61a.86.86,0,0,0-.55,0L23.9,63.11a.82.82,0,0,1-1-1.13l1.54-3.15L41,53.19a.8.8,0,0,1,.57,0L58.72,58.8,60,61.15A.82.82,0,0,1,59,62.32Z"/><path class="cls-9" d="M40.06,26.82a.58.58,0,0,1,1,0l9.64,17.7,9.19,16.87a.82.82,0,0,1-1,1.18L41.52,56.84a.8.8,0,0,0-.55,0L23.83,63.34a.83.83,0,0,1-1-1.14l8.43-17.26Z"/></g></g></svg>