<svg xmlns="http://www.w3.org/2000/svg" viewBox="0 0 279.84 460.28"><defs><style>.cls-1{fill:#5dcbfd;}.cls-2{fill:#373635;}.cls-3,.cls-6{fill:#25252d;}.cls-4{fill:#21201f;}.cls-4,.cls-8{opacity:0.5;}.cls-5,.cls-8{fill:#fff;}.cls-6{font-size:53.33px;font-family:Dosis-Bold, Dosis;font-weight:700;}.cls-7{fill:#e1e4fe;}</style></defs><title>Asset 104</title><g id="Layer_2" data-name="Layer 2"><g id="Layer_1-2" data-name="Layer 1"><rect class="cls-1" x="76.12" y="6.27" width="199.22" height="420.53" rx="26.4"/><path class="cls-2" d="M274.4,26.12V401.58c0,14.35-18.66,26-41.69,26H114.57V7H232.71C255.74,7,274.4,11.77,274.4,26.12Z"/><path class="cls-3" d="M126.11,3.89V14.52c0,3.79,2.57,6.86,5.73,6.86h87.87c3.16,0,5.72-3.07,5.72-6.86V3.89"/><path class="cls-4" d="M76.12,397.45V380.71a26,26,0,0,0,26,26H249.36a26,26,0,0,0,26-26v16.74a26,26,0,0,1-26,26H102.1A26,26,0,0,1,76.12,397.45Z"/><path class="cls-3" d="M251,429.53H100.51a28.92,28.92,0,0,1-28.89-28.89V28.89A28.92,28.92,0,0,1,100.51,0H251a28.92,28.92,0,0,1,28.89,28.89V400.64A28.92,28.92,0,0,1,251,429.53ZM100.51,9A19.91,19.91,0,0,0,80.62,28.89V400.64a19.92,19.92,0,0,0,19.89,19.89H251a19.92,19.92,0,0,0,19.89-19.89V28.89A19.92,19.92,0,0,0,251,9Z"/><path class="cls-3" d="M205.48,395.73H146a4.5,4.5,0,0,1,0-9h59.51a4.5,4.5,0,1,1,0,9Z"/><path class="cls-5" d="M76.12,123.24a2.5,2.5,0,0,1-2.5-2.5V100.28a2.5,2.5,0,0,1,5,0v20.46A2.5,2.5,0,0,1,76.12,123.24Z"/><path class="cls-5" d="M76.12,133.17a2.5,2.5,0,0,1-2.5-2.5v-4.3a2.5,2.5,0,0,1,5,0v4.3A2.5,2.5,0,0,1,76.12,133.17Z"/><path class="cls-5" d="M76.12,139.47a2.5,2.5,0,0,1-2.5-2.5v-1.26a2.5,2.5,0,0,1,5,0V137A2.5,2.5,0,0,1,76.12,139.47Z"/><path class="cls-5" d="M76.15,127.94a2.5,2.5,0,0,1-2.5-2.5V105a2.5,2.5,0,1,1,5,0v20.46A2.5,2.5,0,0,1,76.15,127.94Z"/><path class="cls-5" d="M76.09,134.76a2.49,2.49,0,0,1-2.5-2.5v-2.74a2.5,2.5,0,1,1,5,0v2.74A2.49,2.49,0,0,1,76.09,134.76Z"/><path class="cls-5" d="M127.64,171.92H24.85A17,17,0,0,1,7.91,155L7.64,82.34a17,17,0,0,1,17-17H127.38a17,17,0,0,1,17,16.89l.26,72.69A17,17,0,0,1,127.64,171.92Z"/><text class="cls-6" transform="translate(45.49 135.38)">AD</text><polygon class="cls-7" points="142.45 167.01 12.04 167.01 11.68 154.74 142.08 154.74 142.45 167.01"/><path class="cls-3" d="M130.69,176.42H21.82a18.44,18.44,0,0,1-18.4-18.34L3.13,79.3A18.42,18.42,0,0,1,21.54,60.83H130.41a18.45,18.45,0,0,1,18.41,18.34l.28,78.77a18.42,18.42,0,0,1-18.41,18.48ZM21.54,69.83a9.42,9.42,0,0,0-9.41,9.44L12.42,158a9.42,9.42,0,0,0,9.4,9.38H130.69A9.41,9.41,0,0,0,140.1,158l-.28-78.78a9.43,9.43,0,0,0-9.41-9.37Z"/><rect class="cls-8" x="244.17" y="43.19" width="7" height="55.42"/><rect class="cls-8" x="244.01" y="109.49" width="7" height="12.45"/><rect class="cls-5" x="244.17" y="135.66" width="7" height="17.87"/><rect class="cls-3" x="131.49" y="451.28" width="92.82" height="9"/><rect class="cls-3" x="108.03" y="451.28" width="11" height="9"/><rect class="cls-3" x="236.77" y="451.28" width="12.69" height="9"/><rect class="cls-5" y="80.03" width="17.83" height="12.46"/><rect class="cls-5" y="90.72" width="17.83" height="26.71"/><rect class="cls-5" y="129.89" width="17.83" height="12.46"/><rect class="cls-5" x="68.15" y="216.49" width="12.46" height="12.46"/><rect class="cls-5" x="68.15" y="241.38" width="12.46" height="12.46"/><rect class="cls-5" x="68.15" y="266.3" width="12.46" height="12.46"/><rect class="cls-5" x="68.15" y="291.23" width="12.46" height="12.46"/><rect class="cls-8" x="91.59" y="268.59" width="7" height="55.47"/><rect class="cls-8" x="91.42" y="335.11" width="7" height="11.12"/></g></g></svg>