<svg xmlns="http://www.w3.org/2000/svg" viewBox="0 0 330.89 479.71"><defs><style>.cls-1{fill:#21201f;}.cls-1,.cls-2{opacity:0.5;}.cls-2,.cls-5{fill:#fff;}.cls-3{fill:#373635;}.cls-4{fill:#5dcbfd;}.cls-6{fill:#25252d;}.cls-7{fill:#e1e4fe;}</style></defs><title>Asset 106</title><g id="Layer_2" data-name="Layer 2"><g id="Layer_1-2" data-name="Layer 1"><rect class="cls-1" x="9.17" y="98.36" width="11.4" height="323.66"/><rect class="cls-2" x="86.15" y="218.75" width="7" height="55.47"/><rect class="cls-2" x="85.98" y="285.26" width="7" height="11.12"/><polygon class="cls-3" points="324.66 419.4 5.67 419.4 5.67 95.73 110.83 95.73 324.66 95.73 324.66 419.4"/><rect class="cls-4" x="110.44" y="94.56" width="106.53" height="323.67"/><rect class="cls-2" x="292.95" y="130.49" width="7" height="55.42"/><rect class="cls-2" x="292.79" y="196.79" width="7" height="12.45"/><rect class="cls-5" x="292.95" y="222.95" width="7" height="17.87"/><path class="cls-6" d="M328,423.9H0V91.23H328Zm-319-9H319V100.23H9Z"/><path class="cls-6" d="M110.44,423.9a4.51,4.51,0,0,1-4.5-4.5V98.07a4.5,4.5,0,0,1,9,0V419.4A4.5,4.5,0,0,1,110.44,423.9Z"/><path class="cls-6" d="M217,423.9a4.5,4.5,0,0,1-4.5-4.5V98.07a4.5,4.5,0,1,1,9,0V419.4A4.51,4.51,0,0,1,217,423.9Z"/><path class="cls-1" d="M247.32,125.26c-.07,47.73-86.66,157.2-86.66,157.2S74.41,172.72,74.48,125a86.42,86.42,0,1,1,172.84.26Z"/><path class="cls-4" d="M247.32,89.62c-.07,47.73-86.66,157.2-86.66,157.2S74.41,137.09,74.48,89.36a86.42,86.42,0,0,1,172.84.26Z"/><path class="cls-1" d="M95.48,89.35c-.06,38,54.56,115.24,76.86,145.2-5.75,7.69-9.37,12.26-9.37,12.26S76.71,137.08,76.79,89.35A86.42,86.42,0,0,1,163.34,3.06a82.76,82.76,0,0,1,9.23.51A86.4,86.4,0,0,0,95.48,89.35Z"/><path class="cls-6" d="M160.65,255.52,157.12,251C153.56,246.5,69.91,139.51,70,90.78A91,91,0,0,1,160.9,0H161a91,91,0,0,1,90.78,91.06h0c-.07,48.73-84,155.46-87.63,160ZM160.9,9A82,82,0,0,0,79,90.8c-.06,40.24,65.59,128.94,81.69,150.09,16.17-21.1,82.09-109.61,82.15-149.84A82,82,0,0,0,161,9Zm86.42,82.05h0Z"/><rect class="cls-6" x="3.21" y="379.23" width="9.5" height="9" transform="translate(-282.99 133.42) rotate(-48.11)"/><rect class="cls-6" x="20.58" y="352.97" width="21.89" height="9" transform="translate(-255.62 142.23) rotate(-48.11)"/><polygon class="cls-6" points="55.26 337.75 48.56 331.74 57.55 321.71 68.62 329.38 63.49 336.78 58.95 333.63 55.26 337.75"/><path class="cls-6" d="M131.68,384l-18-12.47,5.12-7.39,18,12.47ZM97.59,360.41l-18-12.47,5.13-7.4,18,12.47Z"/><polygon class="cls-6" points="158.24 402.44 147.78 395.19 152.91 387.79 158.07 391.37 163.12 387.64 168.47 394.87 158.24 402.44"/><path class="cls-6" d="M181.37,385.34,176,378.1l14.41-10.66,5.35,7.24Zm27.31-20.2-5.35-7.24,14.42-10.65,5.35,7.23ZM236,344.94l-5.35-7.23,14.41-10.66,5.35,7.24Zm27.31-20.19L258,317.51l14.42-10.66,5.35,7.24Zm27.32-20.2-5.35-7.23,14.41-10.66,5.35,7.23Z"/><rect class="cls-6" x="314.34" y="273.41" width="9.5" height="9" transform="translate(-102.71 244.16) rotate(-36.48)"/><circle class="cls-5" cx="165.01" cy="78.79" r="24.63"/><path class="cls-7" d="M188.78,78.11A24.63,24.63,0,1,1,140.28,72,24.63,24.63,0,0,0,188,72,24.41,24.41,0,0,1,188.78,78.11Z"/><path class="cls-6" d="M165,107.91a29.13,29.13,0,1,1,29.12-29.12A29.16,29.16,0,0,1,165,107.91Zm0-49.25a20.13,20.13,0,1,0,20.12,20.13A20.15,20.15,0,0,0,165,58.66Z"/><rect class="cls-6" x="119.3" y="470.71" width="92.82" height="9"/><rect class="cls-6" x="95.84" y="470.71" width="11" height="9"/><rect class="cls-6" x="224.58" y="470.71" width="12.69" height="9"/><rect class="cls-5" x="213.47" y="65.69" width="7" height="27.43" transform="translate(-0.62 1.71) rotate(-0.45)"/><rect class="cls-5" x="213.52" y="102.17" width="7" height="10.78" transform="translate(-0.85 1.72) rotate(-0.45)"/><rect class="cls-5" x="318.43" y="158.84" width="12.46" height="12.46" transform="translate(489.73 -159.59) rotate(90)"/><rect class="cls-5" x="318.43" y="183.76" width="12.46" height="12.46" transform="translate(514.66 -134.66) rotate(90)"/><rect class="cls-5" x="318.43" y="208.69" width="12.46" height="12.46" transform="translate(539.58 -109.74) rotate(90)"/><rect class="cls-5" x="318.43" y="233.62" width="12.46" height="12.46" transform="translate(564.51 -84.81) rotate(90)"/><rect class="cls-5" x="118.7" y="414.82" width="12.46" height="12.46"/><rect class="cls-5" x="143.63" y="414.82" width="12.46" height="12.46"/><rect class="cls-5" x="155.96" y="414.82" width="12.46" height="12.46"/><rect class="cls-5" x="166.56" y="414.82" width="14.46" height="12.46"/><rect class="cls-2" x="76.18" y="219.92" width="7" height="55.47"/><rect class="cls-2" x="76.01" y="286.43" width="7" height="11.12"/></g></g></svg>