<svg xmlns="http://www.w3.org/2000/svg" viewBox="0 0 487.43 434.54"><defs><style>.cls-1{fill:#5dcbfd;}.cls-2{fill:#4faefd;}.cls-3{fill:#25252d;}.cls-4{fill:#373635;}.cls-5{fill:#21201f;}.cls-5,.cls-9{opacity:0.5;}.cls-6,.cls-9{fill:#fff;}.cls-7{fill:#e1e4fe;}.cls-8{fill:#cdcdcf;}</style></defs><title>Asset 108</title><g id="Layer_2" data-name="Layer 2"><g id="Layer_1-2" data-name="Layer 1"><path class="cls-1" d="M215.83,379.8H275a0,0,0,0,1,0,0v49.35a.72.72,0,0,1-.72.72H216.55a.72.72,0,0,1-.72-.72V379.8A0,0,0,0,1,215.83,379.8Z"/><rect class="cls-2" x="215.83" y="391.11" width="59.21" height="10.89"/><path class="cls-3" d="M275.05,433.9a4.5,4.5,0,0,1-4.5-4.5V384.48H220.33V429.4a4.5,4.5,0,0,1-9,0V375.48h68.22V429.4A4.51,4.51,0,0,1,275.05,433.9Z"/><rect class="cls-3" x="199.19" y="425.54" width="92.82" height="9"/><rect class="cls-3" x="175.74" y="425.54" width="11" height="9"/><rect class="cls-3" x="304.48" y="425.54" width="12.69" height="9"/><rect class="cls-1" x="7.95" y="46" width="474.98" height="340.67" rx="29.67"/><path class="cls-2" d="M457.84,384.21c-.76.07-1.53.1-2.3.1H39.91a29.67,29.67,0,0,1-29.68-29.67L7,68.54C7,51.53,24.34,46.93,24.44,46,50.73,56.71,45,84.08,59.5,102.71c19,24.3,2.79,75.05-2.57,101.42-8.15,40.13-21.63,82.8-19.46,124.15C40,376,102.23,385.16,140,387.88c49.88,3.58,100.12,1.5,149.73-3.14C344.05,379.67,405.32,389.69,457.84,384.21Z"/><rect class="cls-4" x="41.3" y="75.04" width="408.28" height="247.59"/><polygon class="cls-5" points="449.58 75.04 41.3 75.04 41.3 92.54 88.53 92.54 88.53 322.63 106.03 322.63 106.03 92.54 449.58 92.54 449.58 75.04"/><path class="cls-3" d="M458.54,391.17H32.34A28.92,28.92,0,0,1,3.45,362.28V70.39a28.92,28.92,0,0,1,28.89-28.9h426.2a28.92,28.92,0,0,1,28.89,28.9V362.28A28.92,28.92,0,0,1,458.54,391.17ZM32.34,50.49a19.92,19.92,0,0,0-19.89,19.9V362.28a19.92,19.92,0,0,0,19.89,19.89h426.2a19.92,19.92,0,0,0,19.89-19.89V70.39a19.92,19.92,0,0,0-19.89-19.9Z"/><path class="cls-6" d="M245.44,172.59a2.5,2.5,0,0,1-2.5-2.5V109.62a2.5,2.5,0,0,1,5,0v60.47A2.5,2.5,0,0,1,245.44,172.59Z"/><path class="cls-6" d="M245.44,201.94a2.5,2.5,0,0,1-2.5-2.5v-12.7a2.5,2.5,0,0,1,5,0v12.7A2.5,2.5,0,0,1,245.44,201.94Z"/><path class="cls-6" d="M245.44,220.55a2.5,2.5,0,0,1-2.5-2.5v-3.71a2.5,2.5,0,1,1,5,0v3.71A2.5,2.5,0,0,1,245.44,220.55Z"/><rect class="cls-6" x="462.97" y="137.14" width="7" height="60.47"/><rect class="cls-6" x="462.8" y="206.66" width="7" height="18.12"/><path class="cls-6" d="M245.53,159.79a2.5,2.5,0,0,1-2.5-2.5V96.82a2.5,2.5,0,0,1,5,0v60.47A2.5,2.5,0,0,1,245.53,159.79Z"/><path class="cls-6" d="M245.35,180a2.5,2.5,0,0,1-2.5-2.5v-8.12a2.5,2.5,0,0,1,5,0v8.12A2.5,2.5,0,0,1,245.35,180Z"/><path class="cls-6" d="M365.39,321.27H126.18A18.28,18.28,0,0,1,107.9,303l-.68-278.49A18.27,18.27,0,0,1,125.49,6.23H364.7A18.28,18.28,0,0,1,383,24.46L383.66,303A18.27,18.27,0,0,1,365.39,321.27Z"/><polygon class="cls-7" points="384.72 318.67 108.96 318.67 108.19 306.2 383.94 306.2 384.72 318.67"/><path class="cls-3" d="M382.52,325.77a4.5,4.5,0,0,1-4.5-4.49l-.74-300.94a9.64,9.64,0,0,0-9.63-9.61H120.16a9.63,9.63,0,0,0-9.63,9.66l.74,300.87a4.51,4.51,0,0,1-4.49,4.51h0a4.5,4.5,0,0,1-4.5-4.49l-.74-300.87A18.64,18.64,0,0,1,120.16,1.73H367.65a18.66,18.66,0,0,1,18.63,18.59L387,321.26a4.5,4.5,0,0,1-4.48,4.51Z"/><path class="cls-3" d="M454.08,327.12H36.8V70.54h68.37a4.5,4.5,0,0,1,0,9H45.8V318.12H445.08V79.54h-62a4.5,4.5,0,0,1,0-9h71Z"/><circle class="cls-6" cx="246.45" cy="351.21" r="9.15"/><path class="cls-3" d="M246.45,363.36a12.15,12.15,0,1,1,12.15-12.15A12.16,12.16,0,0,1,246.45,363.36Zm0-18.29a6.15,6.15,0,1,0,4.61,2.08A6.15,6.15,0,0,0,246.45,345.07Z"/><rect class="cls-8" x="263.74" y="73.95" width="76.72" height="67.04" transform="translate(409.58 -194.63) rotate(90)"/><rect class="cls-6" x="319.4" y="83.55" width="7" height="24.88"/><rect class="cls-6" x="319.31" y="116.38" width="7" height="11.01"/><rect class="cls-6" x="240.82" y="81.13" width="7" height="24.88"/><rect class="cls-6" x="240.73" y="113.96" width="7" height="11.01"/><rect class="cls-8" x="188.21" y="120.75" width="21.96" height="110.85" transform="translate(375.37 -23.02) rotate(90)"/><rect class="cls-8" x="228.72" y="120.27" width="21.96" height="191.86" transform="translate(455.89 -23.5) rotate(90)"/><rect class="cls-8" x="160.83" y="53.35" width="76.72" height="110.85" transform="translate(307.97 -90.42) rotate(90)"/><rect class="cls-9" x="395.29" y="338.65" width="55.47" height="7"/><rect class="cls-9" x="373.12" y="338.48" width="11.12" height="7"/><rect class="cls-6" y="157.52" width="12.46" height="12.46"/><rect class="cls-6" y="182.41" width="12.46" height="12.46"/><rect class="cls-6" y="207.34" width="12.46" height="12.46"/><rect class="cls-6" y="232.26" width="12.46" height="12.46"/><rect class="cls-5" x="384.72" y="92.54" width="17.1" height="228.73"/><rect class="cls-6" x="181.34" width="12.46" height="12.46"/><rect class="cls-6" x="206.27" width="12.46" height="12.46"/><rect class="cls-6" x="231.19" width="12.46" height="12.46"/><rect class="cls-6" x="256.12" width="12.46" height="12.46"/><rect class="cls-3" x="92.75" y="346.71" width="88.59" height="9"/></g></g></svg>