<svg xmlns="http://www.w3.org/2000/svg" viewBox="0 0 132.79 118.59"><defs><style>.cls-1{fill:#f7afa3;opacity:0.15;}.cls-2{fill:#fff;}.cls-3{fill:#d5dfeb;}.cls-4{fill:#f5a8a0;}.cls-5{fill:#3e6177;}</style></defs><title>Asset 196</title><g id="Layer_2" data-name="Layer 2"><g id="Layer_1-2" data-name="Layer 1"><rect class="cls-1" x="-14.21" y="34.29" width="147" height="50" rx="25" ry="25" transform="translate(-24.56 59.29) rotate(-45)"/><rect class="cls-2" x="39.11" y="23.79" width="84.81" height="70.93" rx="11.75" ry="11.75"/><path class="cls-3" d="M44.79,43.68h73a0,0,0,0,1,0,0v39a6.59,6.59,0,0,1-6.59,6.59H51.38a6.59,6.59,0,0,1-6.59-6.59v-39A0,0,0,0,1,44.79,43.68Z"/><circle class="cls-4" cx="48.75" cy="30.73" r="1.93"/><circle class="cls-4" cx="54.39" cy="30.73" r="1.93"/><circle class="cls-4" cx="60.02" cy="30.73" r="1.93"/><path class="cls-5" d="M69.18,109.79a5.36,5.36,0,1,1,5.36-5.36A5.36,5.36,0,0,1,69.18,109.79Zm0-7.71a2.36,2.36,0,1,0,2.36,2.35A2.36,2.36,0,0,0,69.18,102.08Z"/><path class="cls-4" d="M29.09,43.8a5.36,5.36,0,1,1,5.35-5.35A5.36,5.36,0,0,1,29.09,43.8Zm0-7.71a2.36,2.36,0,1,0,2.35,2.36A2.36,2.36,0,0,0,29.09,36.09Z"/><circle class="cls-4" cx="82.87" cy="101.86" r="2.12"/><circle class="cls-4" cx="129.9" cy="48.66" r="2.12"/><circle class="cls-3" cx="33.52" cy="26.3" r="2.12"/><circle class="cls-3" cx="130.67" cy="38.64" r="2.12"/><path class="cls-5" d="M112.18,96.23H50.86A13.26,13.26,0,0,1,37.62,83V35.54A13.26,13.26,0,0,1,50.86,22.29h61.31a13.26,13.26,0,0,1,13.25,13.25V83A13.26,13.26,0,0,1,112.18,96.23ZM50.86,25.29A10.26,10.26,0,0,0,40.62,35.54V83A10.26,10.26,0,0,0,50.86,93.23h61.31A10.26,10.26,0,0,0,122.43,83V35.54a10.26,10.26,0,0,0-10.25-10.25Z"/><rect class="cls-5" x="39.12" y="36.94" width="84.81" height="3"/><rect class="cls-3" x="85.76" y="29.58" width="29.3" height="3.08" rx="1.54" ry="1.54"/><rect class="cls-3" x="73.43" y="29.58" width="9.25" height="3.08" rx="1.54" ry="1.54"/><path class="cls-2" d="M43.36,64.75v4.92H34.87V64.75a4.24,4.24,0,0,1,8.48,0Z"/><path class="cls-3" d="M51.45,70.06H43.74V65a4.24,4.24,0,0,0-8.48,0v5H27.55V65a12,12,0,0,1,23.9,0Z"/><rect class="cls-3" x="20.71" y="70.04" width="37.78" height="30.86" rx="7.11" ry="7.11"/><path class="cls-5" d="M52,102.32H27.15a8,8,0,0,1-7.95-7.95v-18a8,8,0,0,1,7.95-7.95H52A8,8,0,0,1,60,76.41v18A8,8,0,0,1,52,102.32ZM27.15,71.46a5,5,0,0,0-4.95,4.95v18a5,5,0,0,0,4.95,4.95H52A5,5,0,0,0,57,94.37v-18A5,5,0,0,0,52,71.46Z"/><path class="cls-5" d="M40.41,82.61a3,3,0,1,0-1.62,0l-1.52,6a2.55,2.55,0,0,0,2.2,3.16v0h.27v0a2.55,2.55,0,0,0,2.2-3.16Z"/><path class="cls-5" d="M53,71.56H42.24V65a2.74,2.74,0,1,0-5.48,0v6.51H26V65A13.45,13.45,0,1,1,53,65Zm-7.71-3H50V65A10.45,10.45,0,1,0,29,65v3.51h4.71V65a5.74,5.74,0,1,1,11.48,0Z"/></g></g></svg>