<svg xmlns="http://www.w3.org/2000/svg" viewBox="0 0 118.59 120.81"><defs><style>.cls-1{fill:#f7afa3;opacity:0.15;}.cls-2{fill:#d5dfeb;}.cls-3{fill:#3e6177;}.cls-4{fill:#fff;}.cls-5,.cls-6{fill:#f5a8a0;}.cls-6{opacity:0.3;}</style></defs><title>Asset 191</title><g id="Layer_2" data-name="Layer 2"><g id="Layer_1-2" data-name="Layer 1"><rect class="cls-1" x="-14.21" y="36.52" width="147" height="50" rx="25" ry="25" transform="translate(-26.13 59.95) rotate(-45)"/><path class="cls-2" d="M97.51,45.72V11a3.63,3.63,0,0,0-3.63-3.63H29.5A3.63,3.63,0,0,0,25.86,11v96.56a3.63,3.63,0,0,0,3.63,3.63H93.87a3.63,3.63,0,0,0,3.63-3.63V45.72Z"/><path class="cls-3" d="M93.86,111.77H29.51a5.15,5.15,0,0,1-5.14-5.14V10.09a5.15,5.15,0,0,1,5.14-5.14H93.86A5.15,5.15,0,0,1,99,10.09v96.54A5.15,5.15,0,0,1,93.86,111.77ZM29.51,7.95a2.15,2.15,0,0,0-2.14,2.14v96.54a2.15,2.15,0,0,0,2.14,2.14H93.86A2.15,2.15,0,0,0,96,106.63V10.09a2.15,2.15,0,0,0-2.14-2.14Z"/><circle class="cls-4" cx="62.51" cy="103.33" r="2.72"/><rect class="cls-4" x="35.51" y="16.67" width="54.15" height="79.41"/><path class="cls-3" d="M15.83,56.34a6,6,0,1,1,6-6A6,6,0,0,1,15.83,56.34Zm0-9.06a3,3,0,1,0,3,3A3,3,0,0,0,15.83,47.27Z"/><path class="cls-5" d="M107.37,77.18a6,6,0,1,1,6-6A6,6,0,0,1,107.37,77.18Zm0-9.06a3,3,0,1,0,3,3A3,3,0,0,0,107.37,68.12Z"/><circle class="cls-5" cx="105.33" cy="96.76" r="2.49"/><circle class="cls-2" cx="105.33" cy="55.97" r="2.49"/><circle class="cls-2" cx="18.32" cy="65.94" r="2.49"/><rect class="cls-4" x="29.88" y="20.85" width="2" height="12.69"/><rect class="cls-4" x="29.88" y="35.35" width="2" height="5.44"/><rect class="cls-4" x="29.88" y="42.6" width="2" height="1.81"/><rect class="cls-4" x="92.32" y="28.1" width="2" height="12.69"/><rect class="cls-4" x="92.32" y="42.6" width="2" height="5.44"/><rect class="cls-4" x="92.32" y="49.85" width="2" height="1.81"/><rect class="cls-6" x="40.62" y="31.13" width="12.5" height="3" transform="translate(-9.07 44.15) rotate(-46.48)"/><rect class="cls-6" x="47.17" y="34.08" width="8.02" height="3" transform="translate(-9.68 49.05) rotate(-47.29)"/><path class="cls-3" d="M90.26,98H33.11V14.26H90.26ZM36.11,95H87.26V17.26H36.11Z"/><circle class="cls-4" cx="91.62" cy="26.17" r="26.17"/><circle class="cls-5" cx="92.53" cy="26.17" r="21.23"/><path class="cls-3" d="M91.62,48.91a22.73,22.73,0,1,1,22.73-22.73A22.76,22.76,0,0,1,91.62,48.91Zm0-42.47a19.73,19.73,0,1,0,19.73,19.73A19.76,19.76,0,0,0,91.62,6.44Z"/><path class="cls-4" d="M89.7,35.65a1.92,1.92,0,0,1-1.11-.35l-7.66-5.36a1.5,1.5,0,0,1,1.72-2.46l6.81,4.77,11.13-14.84a1.5,1.5,0,1,1,2.4,1.8L91.24,34.88A1.92,1.92,0,0,1,89.7,35.65Z"/></g></g></svg>