<svg xmlns="http://www.w3.org/2000/svg" viewBox="0 0 118.59 118.59"><defs><style>.cls-1{fill:#f7afa3;opacity:0.15;}.cls-2,.cls-7{fill:#3e6177;}.cls-3{fill:#d5dfeb;}.cls-4{fill:#fff;}.cls-5{fill:#8969ff;}.cls-6{fill:#f5a8a0;}.cls-7{opacity:0.3;}</style></defs><title>Asset 193</title><g id="Layer_2" data-name="Layer 2"><g id="Layer_1-2" data-name="Layer 1"><rect class="cls-1" x="-14.21" y="34.29" width="147" height="50" rx="25" ry="25" transform="translate(-24.56 59.29) rotate(-45)"/><path class="cls-2" d="M18.3,66.29a6.5,6.5,0,1,1,6.5-6.5A6.51,6.51,0,0,1,18.3,66.29Zm0-10a3.5,3.5,0,1,0,3.5,3.5A3.5,3.5,0,0,0,18.3,56.29Z"/><circle class="cls-3" cx="56.04" cy="6.04" r="2.75"/><path class="cls-4" d="M72,20.14V13.22a3,3,0,0,1,3-3h0a3,3,0,0,1,3,3v6.93"/><path class="cls-3" d="M74.71,23.27H36.05c-6.67,0-8.73,6.14-7.82,13l4.82,59a12.4,12.4,0,0,0,12,11H65.68a12.4,12.4,0,0,0,12-11l4.82-59C83.44,29.41,81.38,23.27,74.71,23.27Z"/><path class="cls-2" d="M79.46,20.14h-3V13.22a1.47,1.47,0,0,0-2.94,0v6.93h-3V13.22a4.47,4.47,0,0,1,8.94,0Z"/><path class="cls-2" d="M65.68,107.79h-22v-.09A14.05,14.05,0,0,1,31.57,95.51L26.74,36.41c-.67-5,.21-9.17,2.48-11.76a8.76,8.76,0,0,1,6.83-2.88H74.71a8.76,8.76,0,0,1,6.83,2.88c2.27,2.59,3.15,6.79,2.47,11.83l-4.81,59a14.08,14.08,0,0,1-12,12.26v.1Zm-20-3h20a11,11,0,0,0,10.55-9.67l4.81-59c.56-4.19-.08-7.63-1.75-9.54a5.78,5.78,0,0,0-4.57-1.85H36.05a5.78,5.78,0,0,0-4.57,1.85c-1.67,1.9-2.31,5.35-1.76,9.46l4.83,59.11a11,11,0,0,0,10.54,9.6Z"/><path class="cls-2" d="M69.47,20.07h-3v-.58a5.3,5.3,0,0,0-5.3-5.3H35.39a5.3,5.3,0,0,0-5.3,5.3h-3a8.31,8.31,0,0,1,8.3-8.3H61.17a8.31,8.31,0,0,1,8.3,8.3Z"/><path class="cls-4" d="M77.53,19.21h6.56a5.5,5.5,0,0,1,5.48,5.48h0a5.5,5.5,0,0,1-5.48,5.48H26.68a5.5,5.5,0,0,1-5.48-5.48h0a5.5,5.5,0,0,1,5.48-5.48H77.53Z"/><circle class="cls-4" cx="55.56" cy="63.86" r="16.58"/><path class="cls-5" d="M23.6,15.41a5.57,5.57,0,1,1,5.57-5.57A5.58,5.58,0,0,1,23.6,15.41Zm0-8.14a2.57,2.57,0,1,0,2.57,2.57A2.57,2.57,0,0,0,23.6,7.27Z"/><path class="cls-6" d="M87.27,97.62a5.57,5.57,0,1,1,5.57-5.57A5.58,5.58,0,0,1,87.27,97.62Zm0-8.14a2.57,2.57,0,1,0,2.57,2.57A2.57,2.57,0,0,0,87.27,89.48Z"/><circle class="cls-3" cx="88.51" cy="44.23" r="2.24"/><circle class="cls-3" cx="21.77" cy="35.28" r="2.24"/><rect class="cls-4" x="70.87" y="39.39" width="11.4" height="2" transform="translate(29.07 112.75) rotate(-84.53)"/><rect class="cls-4" x="73.19" y="49.11" width="4.88" height="2" transform="translate(18.55 120.62) rotate(-84.53)"/><rect class="cls-4" x="74.35" y="53.97" width="1.63" height="2" transform="translate(13.29 124.56) rotate(-84.53)"/><rect class="cls-7" x="52.25" y="86.07" width="22.45" height="3" transform="translate(-43.73 73.3) rotate(-46.48)"/><rect class="cls-7" x="59.94" y="88.92" width="14.4" height="3" transform="translate(-44.84 78.44) rotate(-47.29)"/><path class="cls-2" d="M84.09,31.67H26.68a7,7,0,0,1,0-14H84.09a7,7,0,0,1,0,14Zm-57.41-11a4,4,0,0,0,0,8H84.09a4,4,0,0,0,0-8Z"/><path class="cls-2" d="M55.56,81.94A18.08,18.08,0,1,1,73.64,63.86,18.1,18.1,0,0,1,55.56,81.94Zm0-33.16A15.08,15.08,0,1,0,70.64,63.86,15.1,15.1,0,0,0,55.56,48.78Z"/><circle class="cls-4" cx="26.55" cy="24.8" r="23.5"/><circle class="cls-6" cx="27.36" cy="24.8" r="19.07"/><path class="cls-2" d="M26.55,45.37A20.57,20.57,0,1,1,47.12,24.8,20.59,20.59,0,0,1,26.55,45.37Zm0-38.14A17.57,17.57,0,1,0,44.12,24.8,17.59,17.59,0,0,0,26.55,7.23Z"/><path class="cls-4" d="M18.69,22.83V19.76a2.72,2.72,0,0,1,.85-2.22,3.5,3.5,0,0,1,2.3-.7,3.55,3.55,0,0,1,2.31.7A2.69,2.69,0,0,1,25,19.76v3.08a2.69,2.69,0,0,1-.87,2.22,3.55,3.55,0,0,1-2.31.7,3.5,3.5,0,0,1-2.3-.7A2.72,2.72,0,0,1,18.69,22.83Zm2.08,0a.93.93,0,0,0,1.07,1q1.09,0,1.09-1V19.76q0-1-1.09-1a.93.93,0,0,0-1.07,1Zm1.14,9.68A.93.93,0,0,1,22,32.1l7.47-15.62a.91.91,0,0,1,.89-.54,1.36,1.36,0,0,1,.88.33,1,1,0,0,1,.4.82.93.93,0,0,1-.08.41L24.08,33.12a1,1,0,0,1-1,.54,1.16,1.16,0,0,1-.87-.36A1.11,1.11,0,0,1,21.9,32.51Zm6.57-2.71V26.73a2.72,2.72,0,0,1,.85-2.22,3.5,3.5,0,0,1,2.3-.7,3.55,3.55,0,0,1,2.31.7,2.69,2.69,0,0,1,.87,2.22v3.08A2.69,2.69,0,0,1,33.93,32a3.55,3.55,0,0,1-2.31.7,3.5,3.5,0,0,1-2.3-.7A2.72,2.72,0,0,1,28.48,29.81Zm2.08,0a.93.93,0,0,0,1.07,1q1.09,0,1.09-1V26.73q0-1-1.09-1a.93.93,0,0,0-1.07,1Z"/></g></g></svg>