<svg xmlns="http://www.w3.org/2000/svg" viewBox="0 0 118.59 118.59"><defs><style>.cls-1{fill:#f7afa3;opacity:0.15;}.cls-2{fill:#fff;}.cls-3{fill:#d5dfeb;}.cls-4{fill:#3e6177;}.cls-5,.cls-6{fill:#f5a8a0;}.cls-6{opacity:0.3;}</style></defs><title>Asset 194</title><g id="Layer_2" data-name="Layer 2"><g id="Layer_1-2" data-name="Layer 1"><rect class="cls-1" x="-14.21" y="34.29" width="147" height="50" rx="25" ry="25" transform="translate(-24.56 59.29) rotate(-45)"/><rect class="cls-2" x="2.79" y="37.81" width="90.22" height="55.52" rx="6.39" ry="6.39"/><polygon class="cls-3" points="94.44 64.7 4.23 64.7 3.79 53.28 94.01 53.28 94.44 64.7"/><path class="cls-4" d="M59.31,33.24a5.84,5.84,0,1,1,5.84-5.84A5.84,5.84,0,0,1,59.31,33.24Zm0-8.67a2.84,2.84,0,1,0,2.84,2.84A2.84,2.84,0,0,0,59.31,24.57Z"/><path class="cls-5" d="M38.49,108.71a5.84,5.84,0,1,1,5.84-5.84A5.84,5.84,0,0,1,38.49,108.71Zm0-8.67a2.84,2.84,0,1,0,2.84,2.84A2.84,2.84,0,0,0,38.49,100Z"/><circle class="cls-5" cx="101.6" cy="73.6" r="2.39"/><circle class="cls-3" cx="26.13" cy="99.62" r="2.39"/><rect class="cls-6" x="68.6" y="78.82" width="15.55" height="3" transform="translate(-34.46 80.39) rotate(-46.48)"/><rect class="cls-6" x="75.67" y="81.66" width="9.98" height="3" transform="translate(-35.16 86.03) rotate(-47.29)"/><rect class="cls-3" x="11.17" y="77.73" width="35.16" height="3.03" rx="1.51" ry="1.51"/><rect class="cls-3" x="11.17" y="72.28" width="48.58" height="3.03" rx="1.51" ry="1.51"/><path class="cls-4" d="M87.62,94.83H10.19A7.9,7.9,0,0,1,2.3,86.94V44.21a7.9,7.9,0,0,1,7.89-7.89H87.62a7.9,7.9,0,0,1,7.89,7.89V86.94A7.9,7.9,0,0,1,87.62,94.83ZM10.19,39.31A4.9,4.9,0,0,0,5.3,44.21V86.94a4.9,4.9,0,0,0,4.89,4.89H87.62a4.9,4.9,0,0,0,4.89-4.89V44.21a4.9,4.9,0,0,0-4.89-4.89Z"/><rect class="cls-4" x="3.8" y="51.78" width="90.22" height="3"/><rect class="cls-4" x="4.23" y="63.2" width="90.22" height="3"/><rect class="cls-2" x="87.37" y="45.19" width="2" height="12.15"/><rect class="cls-2" x="87.37" y="59.07" width="2" height="5.2"/><rect class="cls-2" x="87.37" y="66.01" width="2" height="1.73"/><circle class="cls-2" cx="86.75" cy="43.34" r="25.05"/><circle class="cls-5" cx="87.61" cy="43.34" r="20.32"/><path class="cls-4" d="M87.75,64.17a21.82,21.82,0,1,1,21.82-21.82A21.85,21.85,0,0,1,87.75,64.17Zm0-40.64a18.82,18.82,0,1,0,18.82,18.82A18.84,18.84,0,0,0,87.75,23.52Z"/><path class="cls-2" d="M78.37,41.25V38a2.9,2.9,0,0,1,.91-2.37,3.73,3.73,0,0,1,2.45-.75,3.78,3.78,0,0,1,2.46.75A2.87,2.87,0,0,1,85.11,38v3.28a2.87,2.87,0,0,1-.92,2.37,3.78,3.78,0,0,1-2.46.75,3.73,3.73,0,0,1-2.45-.75A2.9,2.9,0,0,1,78.37,41.25Zm2.22,0a1,1,0,0,0,1.14,1.11q1.17,0,1.17-1.11V38q0-1.11-1.17-1.11A1,1,0,0,0,80.58,38ZM81.8,51.57a1,1,0,0,1,.11-.44l8-16.64a1,1,0,0,1,1-.58,1.45,1.45,0,0,1,.94.35,1.08,1.08,0,0,1,.43.88,1,1,0,0,1-.09.44l-8,16.64a1,1,0,0,1-1,.58,1.24,1.24,0,0,1-.93-.38A1.18,1.18,0,0,1,81.8,51.57Zm7-2.89V45.4A2.9,2.9,0,0,1,89.71,43a3.73,3.73,0,0,1,2.45-.75,3.78,3.78,0,0,1,2.46.75,2.87,2.87,0,0,1,.92,2.37v3.28A2.87,2.87,0,0,1,94.62,51a3.78,3.78,0,0,1-2.46.75A3.73,3.73,0,0,1,89.71,51,2.9,2.9,0,0,1,88.8,48.68Zm2.22,0a1,1,0,0,0,1.14,1.11q1.17,0,1.17-1.11V45.4q0-1.11-1.17-1.11A1,1,0,0,0,91,45.4Z"/></g></g></svg>