<svg xmlns="http://www.w3.org/2000/svg" viewBox="0 0 55.36 82.88"><defs><style>.cls-1{opacity:0.12;}.cls-2{fill:#aaa;}.cls-3{fill:#ebf0f9;}.cls-4{fill:#c2d0e1;}.cls-5{fill:#606060;}.cls-6{fill:#ed4245;}.cls-7{fill:#c13038;}.cls-10,.cls-8{fill:none;}.cls-9{fill:#fff;}.cls-10{stroke:#fff;stroke-linecap:round;stroke-miterlimit:10;stroke-width:2px;}</style></defs><title>Asset 330</title><g id="Layer_2" data-name="Layer 2"><g id="Layer_1-2" data-name="Layer 1"><g class="cls-1"><path class="cls-2" d="M.18,25.82A14.47,14.47,0,0,1,5.4,14.92c3.3-2.54,8.18-3.11,11.69-.87,1.06.68,2,1.57,3,2.24,3.36,2.11,7.74,1.67,11.52.47S39,13.66,42.93,13s8.48.32,10.63,3.66,1,8.26-2.12,10.85c-2.62,2.2-6.46,3.22-7.89,6.32a10.9,10.9,0,0,0-.71,4.34c-.11,4.19-.11,8.72,2.36,12.1a27.92,27.92,0,0,0,4.14,4c3.22,2.89,5.9,6.64,6,11.15a9.36,9.36,0,0,1-.84,4.17c-2.27,4.89-7.46,5.46-12.05,5.11-3.53-.26-7.13-.93-10.55,0-2.48.66-4.67,2.11-7.05,3.07a19.3,19.3,0,0,1-11.18,1,12,12,0,0,1-6.12-3C4.15,72.28,4.2,66.74,5,62s2.22-9.77.7-14.39a16.56,16.56,0,0,0-1.49-3.18A30,30,0,0,1,.12,26.46Z"/></g><path class="cls-3" d="M16.36,65.88v7.76h0a9.57,9.57,0,0,0,2.88,6.25h0a8.22,8.22,0,0,0,5.35,2h1a8.24,8.24,0,0,0,8.24-8.24V65.88"/><rect class="cls-4" x="16.36" y="65.88" width="17.45" height="2"/><path class="cls-3" d="M33.61,50.88l4.25-7.32,2-3.43,3.36-5.78A16.86,16.86,0,0,0,41,14a21.61,21.61,0,0,0-5.29-4.26l-3-1.42A21.44,21.44,0,0,0,9.2,14a18.36,18.36,0,0,0-3.43,5.4l-1.17,5A17.33,17.33,0,0,0,7,34.34l9.6,16.54v4H30.36Z"/><path class="cls-4" d="M45.28,29A17.69,17.69,0,0,0,41,21a21.57,21.57,0,0,0-5.29-4.26l-3-1.42A21.44,21.44,0,0,0,9.19,21a18.5,18.5,0,0,0-3.43,5.4L5,29.46a16.13,16.13,0,0,1-.45-5.07l1.17-5A18.5,18.5,0,0,1,9.19,14,21.44,21.44,0,0,1,32.73,8.27l3,1.42A21.57,21.57,0,0,1,41,14,16.84,16.84,0,0,1,45.28,29Z"/><path class="cls-5" d="M33.61,52.88a1,1,0,0,1-.86-1.5L37,44.05a1,1,0,1,1,1.73,1l-4.25,7.32A1,1,0,0,1,33.61,52.88Z"/><path class="cls-5" d="M39.85,42.12a1,1,0,0,1-.86-1.5l3.36-5.78a15.93,15.93,0,0,0-2.07-19.21,20.71,20.71,0,0,0-2.36-2.23,1,1,0,0,1,1.26-1.56,22.77,22.77,0,0,1,2.59,2.44,17.88,17.88,0,0,1,2.31,21.55l-3.36,5.78A1,1,0,0,1,39.85,42.12Z"/><path class="cls-5" d="M5.77,21.36A1,1,0,0,1,4.84,20a19.37,19.37,0,0,1,3.61-5.7A22.44,22.44,0,0,1,33.09,8.34a1,1,0,1,1-.71,1.87A20.44,20.44,0,0,0,9.94,15.63a17.33,17.33,0,0,0-3.25,5.11A1,1,0,0,1,5.77,21.36Z"/><path class="cls-5" d="M16.61,52.88a1,1,0,0,1-.87-.5L6.14,35.84A18.38,18.38,0,0,1,3.6,25.33a1,1,0,0,1,1.07-.93,1,1,0,0,1,.93,1.07,16.37,16.37,0,0,0,2.28,9.37l9.6,16.54a1,1,0,0,1-.86,1.5Z"/><path class="cls-6" d="M15.86,57.06H12c-.51,0-.92-1.1-.92-2.46h0c0-1.36.41-2.46.92-2.46H38.19c.51,0,.92,1.1.92,2.46h0c0,1.36-.41,2.46-.92,2.46H15.86Z"/><path class="cls-7" d="M39.07,53.88H11.14a3.86,3.86,0,0,1,.23-1c.17-.45.41-.72.66-.72H38.19C38.61,52.15,39,52.88,39.07,53.88Z"/><path class="cls-6" d="M17.27,65.06H14.12c-.42,0-.76-1.1-.76-2.46h0c0-1.36.34-2.46.76-2.46H35.6c.42,0,.76,1.1.76,2.46h0c0,1.36-.34,2.46-.76,2.46H17.27Z"/><line class="cls-4" x1="51.21" y1="27.5" x2="50.93" y2="29.54"/><path class="cls-4" d="M51.12,30a.5.5,0,0,0,.3-.39l.28-2a.5.5,0,1,0-1-.14l-.28,2a.5.5,0,0,0,.69.53Z"/><line class="cls-4" x1="50.05" y1="28.38" x2="52.09" y2="28.66"/><path class="cls-4" d="M52.29,29.12a.5.5,0,0,0-.13-1l-2-.28a.5.5,0,0,0-.14,1l2,.28A.49.49,0,0,0,52.29,29.12Z"/><path class="cls-4" d="M47.11,17.61a1.38,1.38,0,1,1,1.81.71A1.38,1.38,0,0,1,47.11,17.61Zm.69-.3a.63.63,0,1,0,.32-.82A.63.63,0,0,0,47.79,17.31Z"/><circle class="cls-4" cx="50.16" cy="35.63" r="0.75" transform="translate(-10.04 22.91) rotate(-23.46)"/><line class="cls-4" x1="6.96" y1="56.15" x2="6.06" y2="58"/><path class="cls-4" d="M6.11,58.5a.5.5,0,0,0,.4-.28l.9-1.85a.5.5,0,1,0-.9-.44l-.9,1.85a.5.5,0,0,0,.5.72Z"/><line class="cls-4" x1="5.58" y1="56.62" x2="7.44" y2="57.53"/><path class="cls-4" d="M7.48,58a.5.5,0,0,0,.17-.95l-1.85-.9a.5.5,0,1,0-.44.9l1.85.9A.49.49,0,0,0,7.48,58Z"/><path class="cls-4" d="M3.32,47.75A1.38,1.38,0,1,1,4.82,49,1.38,1.38,0,0,1,3.32,47.75Zm.75-.07A.63.63,0,1,0,4.63,47,.63.63,0,0,0,4.07,47.68Z"/><circle class="cls-4" cx="7.8" cy="67.16" r="0.75" transform="translate(-6.3 1.03) rotate(-5.41)"/><path class="cls-4" d="M11.37,73.67a.57.57,0,0,0-1,.09l-.26.57-.26.57a.57.57,0,0,0,.57.8l.63-.06.63-.06a.57.57,0,0,0,.41-.89l-.36-.51Z"/><line class="cls-4" x1="5.57" y1="3.95" x2="7.33" y2="2.88"/><path class="cls-4" d="M7.83,2.88a.5.5,0,0,1-.24.43L5.83,4.38a.5.5,0,1,1-.52-.85L7.07,2.45a.5.5,0,0,1,.76.43Z"/><line class="cls-4" x1="5.91" y1="2.54" x2="6.98" y2="4.3"/><path class="cls-4" d="M7.48,4.3a.5.5,0,0,1-.93.26L5.48,2.8a.5.5,0,1,1,.85-.52L7.41,4A.49.49,0,0,1,7.48,4.3Z"/><circle class="cls-4" cx="22.61" cy="3.75" r="0.75"/><path class="cls-4" d="M34.42,1.69a.57.57,0,0,1,0-1L35,.39l.54-.31a.57.57,0,0,1,.85.49V1.82a.57.57,0,0,1-.85.49L35,2Z"/><path class="cls-5" d="M16.36,74.64a1,1,0,0,1-1-1V65.88a1,1,0,0,1,2,0v7.76A1,1,0,0,1,16.36,74.64Z"/><path class="cls-5" d="M25.58,82.88h-1a9.2,9.2,0,0,1-5.12-1.55,9.31,9.31,0,0,1-.88-.67,1,1,0,1,1,1.3-1.52,7.19,7.19,0,0,0,4.7,1.74h1a7.24,7.24,0,0,0,7.24-7.24V65.88a1,1,0,0,1,2,0v7.76A9.25,9.25,0,0,1,25.58,82.88Z"/><line class="cls-8" x1="50.14" y1="57.88" x2="48.36" y2="57.88"/><path class="cls-7" d="M36.36,60.79h-23a2.54,2.54,0,0,1,.19-.74c.14-.33.34-.52.54-.52H35.64C36,59.53,36.27,60.06,36.36,60.79Z"/><path class="cls-5" d="M35.49,66.06H14.73a1.84,1.84,0,0,1-1.83-1.83V61a1.84,1.84,0,0,1,1.83-1.83h2.56a1,1,0,0,1,0,2H14.9v2.92H35.32V61.14H24.73a1,1,0,0,1,0-2H35.49A1.84,1.84,0,0,1,37.32,61v3.25A1.84,1.84,0,0,1,35.49,66.06Z"/><path class="cls-5" d="M33.61,71.71H22.36a.5.5,0,1,1,0-1H33.61a.5.5,0,0,1,0,1Z"/><path class="cls-5" d="M33.61,73.71H25.36a.5.5,0,1,1,0-1h8.25a.5.5,0,0,1,0,1Z"/><path class="cls-5" d="M15.86,58.06h-2.7A2.14,2.14,0,0,1,11,55.93V53.27a2.14,2.14,0,0,1,2.13-2.13h4a1,1,0,0,1,0,2h-4a.13.13,0,0,0-.13.13v2.65a.13.13,0,0,0,.13.13h2.7a1,1,0,0,1,0,2Z"/><path class="cls-5" d="M37.06,58.06H23.74a1,1,0,0,1,0-2H37.06a.13.13,0,0,0,.13-.13V53.27a.13.13,0,0,0-.13-.13H21.17a1,1,0,0,1,0-2H37.06a2.14,2.14,0,0,1,2.13,2.13v2.65A2.14,2.14,0,0,1,37.06,58.06Z"/><path class="cls-9" d="M39.07,33a1,1,0,0,1-.48-.13,1,1,0,0,1-.39-1.36l2.29-4.12a1,1,0,1,1,1.75,1l-2.29,4.12A1,1,0,0,1,39.07,33Z"/><path class="cls-9" d="M31.36,46.88a1,1,0,0,1-.48-.13,1,1,0,0,1-.39-1.36L36.24,35A1,1,0,0,1,38,36L32.24,46.36A1,1,0,0,1,31.36,46.88Z"/><path class="cls-10" d="M36.36,35.88"/><path class="cls-10" d="M39.36,30.88"/><path class="cls-10" d="M36.36,35.88"/></g></g></svg>