<svg xmlns="http://www.w3.org/2000/svg" viewBox="0 0 67.02 80"><defs><style>.cls-1{opacity:0.12;}.cls-2{fill:#aaa;}.cls-3{fill:#c2d0e1;}.cls-4{fill:#ebf0f9;}.cls-5{fill:#fff;}.cls-6{fill:#606060;}.cls-7{fill:#ed4245;}.cls-8{fill:#c13038;}</style></defs><title>Asset 290</title><g id="Layer_2" data-name="Layer 2"><g id="Layer_1-2" data-name="Layer 1"><g class="cls-1"><path class="cls-2" d="M3,19.47A15.13,15.13,0,0,1,8.42,8.07C11.86,5.41,17,4.82,20.64,7.16c1.11.71,2.06,1.64,3.17,2.34,3.51,2.21,8.09,1.75,12,.49s7.7-3.24,11.8-3.91,8.87.33,11.12,3.82,1,8.64-2.21,11.35c-2.73,2.3-6.75,3.36-8.25,6.6a11.4,11.4,0,0,0-.74,4.54C47.45,36.77,47.44,41.51,50,45a29.2,29.2,0,0,0,4.33,4.19c3.37,3,6.17,6.95,6.29,11.66a9.78,9.78,0,0,1-.88,4.36C57.4,70.36,52,71,47.17,70.6c-3.69-.27-7.46-1-11,0-2.6.69-4.89,2.2-7.37,3.21a20.18,20.18,0,0,1-11.69,1,12.58,12.58,0,0,1-6.4-3.18C7.1,68,7.16,62.25,8,57.25s2.32-10.22.73-15a17.32,17.32,0,0,0-1.56-3.33A31.35,31.35,0,0,1,2.89,20.14Z"/></g><line class="cls-3" x1="3.88" y1="49.69" x2="3.62" y2="51.57"/><path class="cls-3" d="M3.8,52a.46.46,0,0,0,.27-.36l.26-1.88a.46.46,0,0,0-.91-.13l-.26,1.88A.46.46,0,0,0,3.8,52Z"/><line class="cls-3" x1="2.81" y1="50.5" x2="4.69" y2="50.76"/><path class="cls-3" d="M4.87,51.18a.46.46,0,0,0-.12-.88L2.87,50a.46.46,0,0,0-.13.91l1.88.26A.45.45,0,0,0,4.87,51.18Z"/><path class="cls-3" d="M.1,40.6a1.26,1.26,0,1,1,1.66.66A1.27,1.27,0,0,1,.1,40.6Zm.63-.27a.57.57,0,1,0,.3-.76A.58.58,0,0,0,.74,40.33Z"/><circle class="cls-3" cx="2.91" cy="57.17" r="0.69" transform="matrix(0.92, -0.4, 0.4, 0.92, -22.52, 5.88)"/><path class="cls-3" d="M39.93,72.38a.52.52,0,0,1,.9,0l.29.5.29.5a.52.52,0,0,1-.45.78H39.8a.52.52,0,0,1-.45-.78l.29-.5Z"/><line class="cls-3" x1="63.86" y1="34.59" x2="62.87" y2="36.21"/><path class="cls-3" d="M62.87,36.67a.46.46,0,0,0,.39-.22l1-1.62a.46.46,0,0,0-.78-.48l-1,1.62a.46.46,0,0,0,.39.7Z"/><line class="cls-3" x1="62.55" y1="34.91" x2="64.17" y2="35.9"/><path class="cls-3" d="M64.17,36.36a.46.46,0,0,0,.24-.85l-1.62-1a.46.46,0,1,0-.48.78l1.62,1A.45.45,0,0,0,64.17,36.36Z"/><path class="cls-3" d="M61.26,26.59a1.26,1.26,0,1,1,1.26,1.26A1.27,1.27,0,0,1,61.26,26.59Zm.69,0a.57.57,0,1,0,.57-.57A.58.58,0,0,0,61.95,26.59Z"/><circle class="cls-3" cx="63.67" cy="44.75" r="0.69"/><path class="cls-3" d="M66.37,51a.52.52,0,0,0-.9,0l-.29.5-.29.5a.52.52,0,0,0,.45.78H66.5A.52.52,0,0,0,67,52l-.29-.5Z"/><line class="cls-3" x1="28.11" y1="5.06" x2="29.73" y2="4.07"/><path class="cls-3" d="M30.19,4.07a.46.46,0,0,1-.22.39l-1.62,1a.46.46,0,0,1-.48-.78l1.62-1a.46.46,0,0,1,.7.39Z"/><line class="cls-3" x1="28.43" y1="3.75" x2="29.41" y2="5.37"/><path class="cls-3" d="M29.87,5.37a.46.46,0,0,1-.85.24L28,4a.46.46,0,1,1,.78-.48l1,1.62A.45.45,0,0,1,29.87,5.37Z"/><path class="cls-3" d="M14.94,4.64a1.26,1.26,0,1,1-1.26-1.26A1.27,1.27,0,0,1,14.94,4.64Zm-1.84,0a.57.57,0,1,0,.57-.57A.58.58,0,0,0,13.1,4.64Z"/><circle class="cls-3" cx="43.79" cy="4.87" r="0.69"/><path class="cls-3" d="M54.65,3a.52.52,0,0,1,0-.9l.5-.29.5-.29a.52.52,0,0,1,.78.45V3.1a.52.52,0,0,1-.78.45l-.5-.29Z"/><path class="cls-4" d="M50.53,52,57.2,65.63A2.55,2.55,0,0,1,56,69l-19.79,9.7a2.55,2.55,0,0,1-3.41-1.17L7.73,26.35A13.57,13.57,0,0,1,13.94,8.2h0A13.57,13.57,0,0,1,32.1,14.41L45.69,42.14l1.82,3.71"/><path class="cls-5" d="M56,69l-1.53.74a2.43,2.43,0,0,0-.25-1.2L47.59,55l-3-6.18-1.82-3.71L29.16,17.36a13.6,13.6,0,0,0-12.21-7.6,13.51,13.51,0,0,0-8,2.61,13.57,13.57,0,0,1,23.14,2L45.69,42.14l1.82,3.71,3,6.18,6.67,13.6A2.56,2.56,0,0,1,56,69Z"/><path class="cls-3" d="M55.45,68.45l-19.8,9.7A2.56,2.56,0,0,1,32.24,77L7.14,25.76A13.58,13.58,0,0,1,12.39,8.13,13.55,13.55,0,0,0,11.86,21L37,72.26a2.56,2.56,0,0,0,3.41,1.17l16.39-8A2.57,2.57,0,0,1,55.45,68.45Z"/><path class="cls-6" d="M35.13,80a3.55,3.55,0,0,1-3.19-2L6.83,26.79A14.57,14.57,0,0,1,33,14L48.4,45.41a1,1,0,1,1-1.79.88L31.2,14.85A12.57,12.57,0,1,0,8.63,25.91l25.1,51.22a1.54,1.54,0,0,0,2.07.71l19.79-9.7a1.55,1.55,0,0,0,.71-2.07L49.64,52.46a1,1,0,0,1,1.8-.88L58.1,65.19a3.55,3.55,0,0,1-1.62,4.75l-19.79,9.7A3.53,3.53,0,0,1,35.13,80Z"/><path class="cls-6" d="M26.87,64.84a1,1,0,0,1-.32-.05,1,1,0,0,1-.62-1.27l5.9-17.24a1,1,0,0,1,1.89.65l-5.9,17.24A1,1,0,0,1,26.87,64.84Z"/><path class="cls-6" d="M25.89,54.81a1,1,0,0,1-.32-.05,1,1,0,0,1-.62-1.27l5.9-17.24a1,1,0,1,1,1.89.65l-5.9,17.24A1,1,0,0,1,25.89,54.81Z"/><circle class="cls-7" cx="20.02" cy="19.67" r="5.9" transform="translate(-6.61 10.82) rotate(-26.11)"/><path class="cls-8" d="M22.62,25a5.9,5.9,0,0,1-7.55-2.1,5.9,5.9,0,0,0,8.47-7.58,4.61,4.61,0,0,0-.33-.58A5.89,5.89,0,0,1,22.62,25Z"/><path class="cls-6" d="M19.67,26.75a6.9,6.9,0,1,1,3-.7A6.91,6.91,0,0,1,19.67,26.75Zm0-11.8a4.91,4.91,0,1,0,1.59.27A4.88,4.88,0,0,0,19.65,14.95Z"/><path class="cls-6" d="M13.21,8a1,1,0,0,1-.9-.55l-3-6A1,1,0,1,1,11.1.55l3,6A1,1,0,0,1,13.21,8Z"/></g></g></svg>