<svg xmlns="http://www.w3.org/2000/svg" viewBox="0 0 66.89 87.38"><defs><style>.cls-1{opacity:0.12;}.cls-2,.cls-4{fill:#aaa;}.cls-3{fill:#ebf0f9;}.cls-4{opacity:0.5;}.cls-5{fill:#ed4245;}.cls-6{fill:#c13038;}.cls-7{fill:#c2d0e1;}.cls-8{fill:#606060;}.cls-9{fill:#fff;}.cls-10{fill:none;stroke:#606060;stroke-linecap:round;stroke-miterlimit:10;stroke-width:2px;}</style></defs><title>Asset 270</title><g id="Layer_2" data-name="Layer 2"><g id="Layer_1-2" data-name="Layer 1"><g class="cls-1"><path class="cls-2" d="M.21,22.13A16.46,16.46,0,0,1,6.15,9.73c3.75-2.89,9.3-3.53,13.29-1,1.21.77,2.24,1.79,3.45,2.55,3.82,2.4,8.8,1.9,13.1.53S44.37,8.3,48.82,7.56s9.64.36,12.09,4.16,1.1,9.4-2.41,12.34c-3,2.5-7.34,3.66-9,7.18a12.4,12.4,0,0,0-.81,4.94C48.6,41,48.6,46.1,51.41,49.95a31.75,31.75,0,0,0,4.71,4.55c3.67,3.29,6.71,7.55,6.84,12.68a10.64,10.64,0,0,1-1,4.74c-2.59,5.56-8.49,6.2-13.71,5.82-4-.3-8.11-1.06-12,0-2.82.75-5.31,2.4-8,3.5a22,22,0,0,1-12.71,1.14,13.68,13.68,0,0,1-7-3.46C4.73,75,4.78,68.66,5.74,63.22s2.53-11.12.8-16.36a18.84,18.84,0,0,0-1.7-3.62A34.09,34.09,0,0,1,.14,22.86Z"/></g><path class="cls-3" d="M31.37,79.38H19.07a4.7,4.7,0,0,1-4.61-4.55l-2.79-53H51.08L49,60.89l-.3,5.73-.43,8.21a4.7,4.7,0,0,1-4.61,4.55H31.37"/><path class="cls-4" d="M56.08,18.38H6.93a3.22,3.22,0,0,1,.87-1.66A3.16,3.16,0,0,1,10,15.79H53A3.15,3.15,0,0,1,56.08,18.38Z"/><path class="cls-5" d="M11.8,15.45l1-2.93a3.21,3.21,0,0,1,3-2.14H47.09a3.21,3.21,0,0,1,3,2.2l1.06,3.18"/><path class="cls-6" d="M32.76,10.39a12.56,12.56,0,0,0-1.85,3.84c-.67,2.48-6.3,1.24-8.43,1.23-1.13,0-10.36-.68-10.68,0l1.41-2.93a4.49,4.49,0,0,1,4.12-2.14C22.45,10.37,27.65,10,32.76,10.39Z"/><path class="cls-7" d="M22.12,35c-2.48,4.06-2.41,9.21-1.31,13.84s3.13,9,4.37,13.57,1.6,9.69-.54,13.94a18.9,18.9,0,0,1-2.05,3.12H19.3a4.7,4.7,0,0,1-4.61-4.55l-2.79-53H29.27a9.86,9.86,0,0,1-.43,3.82C27.64,29.41,24.12,31.74,22.12,35Z"/><path class="cls-8" d="M53,23.07H10a4.13,4.13,0,0,1,0-8.27H53a4.13,4.13,0,1,1,0,8.27ZM10,16.8a2.13,2.13,0,0,0,0,4.27H53a2.13,2.13,0,1,0,0-4.27Z"/><path class="cls-8" d="M51.2,16.25a1,1,0,0,1-.95-.68l-1.06-3.17a2.21,2.21,0,0,0-2.1-1.51H41.82a1,1,0,0,1,0-2h5.27a4.21,4.21,0,0,1,4,2.88l1.06,3.17a1,1,0,0,1-.95,1.32Z"/><path class="cls-8" d="M11.8,15.95a1,1,0,0,1-.33-.06,1,1,0,0,1-.61-1.28l1-2.93a4.22,4.22,0,0,1,4-2.81h21a1,1,0,0,1,0,2h-21a2.22,2.22,0,0,0-2.09,1.48l-1,2.93A1,1,0,0,1,11.8,15.95Z"/><path class="cls-8" d="M31.5,81.38H19.2a5.71,5.71,0,0,1-5.61-5.5L12.37,52.67a1,1,0,0,1,.95-1.05,1,1,0,0,1,1.05.95l1.22,23.21a3.71,3.71,0,0,0,3.61,3.6H31.5a1,1,0,0,1,0,2Z"/><path class="cls-8" d="M12.91,45a1,1,0,0,1-1-.95L10.8,22.9a1,1,0,0,1,2-.11l1.11,21.13A1,1,0,0,1,13,45Z"/><path class="cls-8" d="M43.81,81.38H31.5a1,1,0,0,1,0-2h12.3a3.71,3.71,0,0,0,3.61-3.6l.43-8.21a1,1,0,0,1,1.05-.95,1,1,0,0,1,.95,1.05l-.43,8.21A5.71,5.71,0,0,1,43.81,81.38Z"/><path class="cls-8" d="M49.15,62.89H49.1a1,1,0,0,1-.95-1.05l2.06-39a1,1,0,0,1,2,.11l-2.06,39A1,1,0,0,1,49.15,62.89Z"/><path class="cls-8" d="M50.78,55.54h0l-10-.15A12.19,12.19,0,0,1,40.89,31h.19l10.74.16a3.15,3.15,0,0,1,3.1,3.33l-1,18.06A3.15,3.15,0,0,1,50.78,55.54ZM40.9,33a10.19,10.19,0,0,0-.15,20.38l10,.15h0a1.15,1.15,0,0,0,1.15-1.09l1-18.06a1.16,1.16,0,0,0-1.14-1.22L41.05,33Z"/><path class="cls-9" d="M53.92,34.45l-1,18.06a2.15,2.15,0,0,1-2.18,2l-10-.15A11.19,11.19,0,0,1,29.71,43h0A11.19,11.19,0,0,1,41.07,32l10.74.16A2.15,2.15,0,0,1,53.92,34.45Z"/><path class="cls-7" d="M51.25,54.5a2.08,2.08,0,0,1-.5,0l-10-.15A11.19,11.19,0,0,1,40.89,32h.18l2.88,0a11.19,11.19,0,0,0,.78,22.34Z"/><path class="cls-8" d="M19,72.42a1,1,0,0,1-1-.94l-.37-6a1,1,0,0,1,2-.12l.37,6A1,1,0,0,1,19,72.42Z"/><path class="cls-8" d="M18.21,60.15a1,1,0,0,1-1-.94l-1.93-31.6a1,1,0,0,1,.94-1.06,1,1,0,0,1,1.06.94l1.93,31.6a1,1,0,0,1-.94,1.06Z"/><line class="cls-7" x1="4.22" y1="55" x2="3.93" y2="57.04"/><path class="cls-7" d="M4.13,57.5a.5.5,0,0,0,.3-.39l.28-2a.5.5,0,1,0-1-.14l-.28,2a.5.5,0,0,0,.69.53Z"/><line class="cls-7" x1="3.05" y1="55.88" x2="5.1" y2="56.16"/><path class="cls-7" d="M5.29,56.62a.5.5,0,0,0-.13-1l-2-.28a.5.5,0,1,0-.14,1l2,.28A.49.49,0,0,0,5.29,56.62Z"/><path class="cls-7" d="M.11,45.11a1.37,1.37,0,1,1,1.81.71A1.38,1.38,0,0,1,.11,45.11Zm.69-.3A.62.62,0,1,0,1.13,44,.63.63,0,0,0,.8,44.81Z"/><circle class="cls-7" cx="3.17" cy="63.13" r="0.75" transform="translate(-24.87 6.48) rotate(-23.46)"/><path class="cls-7" d="M22.68,85.44a.57.57,0,0,1,1,0L24,86l.31.54a.57.57,0,0,1-.49.85H22.55a.57.57,0,0,1-.49-.85l.31-.54Z"/><line class="cls-7" x1="63.45" y1="41.58" x2="62.37" y2="43.34"/><path class="cls-7" d="M62.37,43.84a.5.5,0,0,0,.43-.24l1.07-1.76a.5.5,0,0,0-.85-.52l-1.07,1.76a.5.5,0,0,0,.43.76Z"/><line class="cls-7" x1="62.03" y1="41.92" x2="63.79" y2="43"/><path class="cls-7" d="M63.79,43.5a.5.5,0,0,0,.26-.93L62.29,41.5a.5.5,0,1,0-.52.85l1.76,1.07A.49.49,0,0,0,63.79,43.5Z"/><path class="cls-7" d="M60.62,32.88A1.38,1.38,0,1,1,62,34.25,1.38,1.38,0,0,1,60.62,32.88Zm.75,0a.63.63,0,1,0,.63-.62A.63.63,0,0,0,61.37,32.88Z"/><circle class="cls-7" cx="63.24" cy="52.62" r="0.75"/><path class="cls-7" d="M66.18,59.44a.57.57,0,0,0-1,0l-.31.54-.31.54a.57.57,0,0,0,.49.85h1.26a.57.57,0,0,0,.49-.85L66.5,60Z"/><line class="cls-7" x1="21.07" y1="3.95" x2="22.83" y2="2.88"/><path class="cls-7" d="M23.33,2.88a.5.5,0,0,1-.24.43L21.33,4.38a.5.5,0,1,1-.52-.85l1.76-1.07a.5.5,0,0,1,.76.43Z"/><line class="cls-7" x1="21.42" y1="2.54" x2="22.49" y2="4.3"/><path class="cls-7" d="M23,4.3a.5.5,0,0,1-.93.26L21,2.8a.5.5,0,0,1,.85-.52L22.92,4A.49.49,0,0,1,23,4.3Z"/><path class="cls-7" d="M6.74,3.5A1.38,1.38,0,1,1,5.37,2.13,1.38,1.38,0,0,1,6.74,3.5Zm-2,0a.63.63,0,1,0,.63-.62A.63.63,0,0,0,4.74,3.5Z"/><circle class="cls-7" cx="38.12" cy="3.75" r="0.75"/><path class="cls-7" d="M49.93,1.69a.57.57,0,0,1,0-1l.54-.31L51,.08a.57.57,0,0,1,.85.49V1.82a.57.57,0,0,1-.85.49L50.47,2Z"/><path class="cls-8" d="M50.78,55.54h0l-10-.15A12.19,12.19,0,0,1,40.89,31h.19l10.74.16a3.15,3.15,0,0,1,3.1,3.33l-1,18.06A3.15,3.15,0,0,1,50.78,55.54ZM40.9,33a10.19,10.19,0,0,0-.15,20.38l10,.15h0a1.15,1.15,0,0,0,1.15-1.09l1-18.06a1.16,1.16,0,0,0-1.14-1.22L41.05,33Z"/><path class="cls-10" d="M17.37,65.38"/></g></g></svg>