<svg xmlns="http://www.w3.org/2000/svg" viewBox="0 0 67.05 75.01"><defs><style>.cls-1{opacity:0.12;}.cls-2,.cls-7{fill:#aaa;}.cls-3{fill:#ed4245;}.cls-4{fill:#606060;}.cls-5{fill:#c2d0e1;}.cls-6{fill:#fff;}.cls-7{opacity:0.5;}.cls-8{fill:#ebf0f9;}</style></defs><title>Asset 350</title><g id="Layer_2" data-name="Layer 2"><g id="Layer_1-2" data-name="Layer 1"><g class="cls-1"><path class="cls-2" d="M7.86,18.16A14.68,14.68,0,0,1,13.16,7.1c3.34-2.58,8.3-3.15,11.86-.88,1.08.69,2,1.59,3.08,2.27,3.41,2.14,7.85,1.7,11.69.47s7.48-3.14,11.45-3.8,8.6.32,10.79,3.71,1,8.38-2.15,11c-2.65,2.23-6.55,3.26-8,6.41a11.06,11.06,0,0,0-.72,4.41C51,35,51,39.55,53.54,43A28.33,28.33,0,0,0,57.75,47c3.27,2.93,6,6.74,6.1,11.31A9.49,9.49,0,0,1,63,62.58c-2.31,5-7.57,5.54-12.23,5.19-3.58-.27-7.23-.94-10.7,0-2.52.67-4.74,2.14-7.15,3.12a19.58,19.58,0,0,1-11.34,1,12.2,12.2,0,0,1-6.21-3.09c-3.47-3.49-3.42-9.12-2.57-14s2.25-9.92.71-14.6A16.8,16.8,0,0,0,12,37,30.41,30.41,0,0,1,7.8,18.81Z"/></g><rect class="cls-3" x="36.29" y="37.8" width="6" height="40" rx="3" ry="3" transform="translate(-27.6 37.57) rotate(-38.97)"/><rect class="cls-3" x="29.29" y="37.8" width="6" height="40" rx="3" ry="3" transform="translate(21.06 123.05) rotate(-141.04)"/><path class="cls-4" d="M50,75a4,4,0,0,1-3.11-1.48L25.49,47.1a4,4,0,1,1,6.22-5L53.1,68.5a4,4,0,0,1-.59,5.63h0A4,4,0,0,1,50,75ZM28.6,42.58A2,2,0,0,0,27,45.84L48.43,72.27a2,2,0,0,0,2.81.3h0a2,2,0,0,0,.3-2.81L30.16,43.32A2,2,0,0,0,28.6,42.58Z"/><path class="cls-4" d="M21.6,75a4,4,0,0,1-2.51-.89h0a4,4,0,0,1-.59-5.62L39.87,42.06a4,4,0,1,1,6.22,5L24.71,73.53A4,4,0,0,1,21.6,75ZM43,42.58a2,2,0,0,0-1.56.74L20,69.76a2,2,0,0,0,.3,2.81h0a2,2,0,0,0,2.81-.3L44.54,45.84A2,2,0,0,0,43,42.58Z"/><line class="cls-5" x1="27.31" y1="5.15" x2="29.03" y2="4"/><path class="cls-5" d="M29.53,4a.5.5,0,0,1-.22.44L27.59,5.56A.5.5,0,1,1,27,4.73l1.72-1.14a.5.5,0,0,1,.78.4Z"/><line class="cls-5" x1="27.6" y1="3.72" x2="28.74" y2="5.43"/><path class="cls-5" d="M29.24,5.41a.5.5,0,0,1-.92.3L27.18,4A.5.5,0,1,1,28,3.44l1.14,1.72A.49.49,0,0,1,29.24,5.41Z"/><path class="cls-5" d="M13,5.26a1.37,1.37,0,1,1-1.43-1.32A1.38,1.38,0,0,1,13,5.26Zm-2,.08a.62.62,0,1,0,.6-.65A.63.63,0,0,0,11,5.34Z"/><circle class="cls-5" cx="44.34" cy="4.27" r="0.75" transform="translate(-0.13 1.76) rotate(-2.27)"/><path class="cls-5" d="M56.06,1.74a.57.57,0,0,1,0-1l.53-.34.53-.34A.57.57,0,0,1,58,.55l0,.63,0,.63a.57.57,0,0,1-.83.53L56.61,2Z"/><line class="cls-5" x1="64.13" y1="38.42" x2="64.7" y2="40.4"/><path class="cls-5" d="M64.56,40.89a.5.5,0,0,1-.35-.35l-.56-2a.5.5,0,0,1,1-.27l.56,2a.5.5,0,0,1-.61.62Z"/><line class="cls-5" x1="65.41" y1="39.13" x2="63.42" y2="39.69"/><path class="cls-5" d="M63.29,40.18a.5.5,0,0,1,0-1l2-.56a.5.5,0,0,1,.27,1l-2,.56A.49.49,0,0,1,63.29,40.18Z"/><path class="cls-5" d="M65.14,29a1.38,1.38,0,1,1,1.69-1A1.38,1.38,0,0,1,65.14,29Zm.54-1.93a.62.62,0,1,0,.43.77A.63.63,0,0,0,65.68,27.09Z"/><circle class="cls-5" cx="66.3" cy="46.34" r="0.75" transform="matrix(0.27, -0.96, 0.96, 0.27, 3.9, 97.8)"/><line class="cls-5" x1="5.24" y1="32.07" x2="6.14" y2="33.92"/><path class="cls-5" d="M6.1,34.42a.5.5,0,0,1-.4-.28l-.9-1.85a.5.5,0,1,1,.9-.44l.9,1.85a.5.5,0,0,1-.5.72Z"/><line class="cls-5" x1="6.62" y1="32.55" x2="4.76" y2="33.45"/><path class="cls-5" d="M4.72,33.95A.5.5,0,0,1,4.55,33l1.85-.9a.5.5,0,1,1,.44.9L5,33.9A.49.49,0,0,1,4.72,33.95Z"/><path class="cls-5" d="M7.38,24.91a1.37,1.37,0,1,1,1.5-1.24A1.38,1.38,0,0,1,7.38,24.91Zm.19-2a.62.62,0,1,0,.56.68A.63.63,0,0,0,7.57,22.92Z"/><circle class="cls-5" cx="4.4" cy="43.09" r="0.75" transform="translate(-38.91 43.41) rotate(-84.59)"/><path class="cls-5" d="M.83,49.59a.57.57,0,0,1,1,.09l.26.57.26.57a.57.57,0,0,1-.57.8l-.63-.06-.63-.06a.57.57,0,0,1-.41-.89l.36-.51Z"/><polyline class="cls-6" points="14.82 49.95 14.82 17.83 56.76 17.83 56.76 49.95"/><rect class="cls-7" x="15.93" y="17.8" width="39.86" height="4"/><path class="cls-4" d="M14.83,51a1,1,0,0,1-1-1V43.17a1,1,0,0,1,2,0V50A1,1,0,0,1,14.83,51Z"/><path class="cls-4" d="M14.83,34.83a1,1,0,0,1-1-1v-16a1,1,0,0,1,2,0v16A1,1,0,0,1,14.83,34.83Z"/><path class="cls-4" d="M56.76,51a1,1,0,0,1-1-1V31.06a1,1,0,1,1,2,0V50A1,1,0,0,1,56.76,51Z"/><path class="cls-4" d="M56.76,25.59a1,1,0,0,1-1-1V17.83a1,1,0,1,1,2,0v6.76A1,1,0,0,1,56.76,25.59Z"/><path class="cls-8" d="M61.23,17.83H10.36a3.57,3.57,0,1,1,0-7.14H61.23a3.57,3.57,0,0,1,0,7.14Z"/><path class="cls-5" d="M64.79,13.37h-58A3.57,3.57,0,0,1,10.36,9.8H61.23A3.57,3.57,0,0,1,64.79,13.37Z"/><path class="cls-4" d="M61.23,18.83H10.36a4.57,4.57,0,0,1,0-9.14h7a1,1,0,1,1,0,2h-7a2.57,2.57,0,0,0,0,5.14H61.23a2.57,2.57,0,0,0,0-5.14h-39a1,1,0,1,1,0-2h39a4.57,4.57,0,0,1,0,9.14Z"/><path class="cls-8" d="M61.23,57.09H10.36a3.57,3.57,0,1,1,0-7.14H61.23a3.57,3.57,0,1,1,0,7.14Z"/><path class="cls-5" d="M64.79,53.52h-58A3.57,3.57,0,0,1,10.36,50H61.23A3.57,3.57,0,0,1,64.79,53.52Z"/><path class="cls-4" d="M61.23,58.09H56.77a1,1,0,0,1,0-2h4.46a2.57,2.57,0,0,0,0-5.14H10.36a2.57,2.57,0,0,0,0,5.14H49.87a1,1,0,0,1,0,2H10.36a4.57,4.57,0,0,1,0-9.14H61.23a4.57,4.57,0,0,1,0,9.14Z"/><path class="cls-4" d="M48,28.8H23a1,1,0,0,1,0-2H48a1,1,0,0,1,0,2Z"/><path class="cls-4" d="M32,35.3H23a1,1,0,0,1,0-2h9a1,1,0,0,1,0,2Z"/><path class="cls-4" d="M40,41.8H23a1,1,0,0,1,0-2H40a1,1,0,0,1,0,2Z"/></g></g></svg>