<svg xmlns="http://www.w3.org/2000/svg" viewBox="0 0 70.56 82.87"><defs><style>.cls-1{opacity:0.12;}.cls-2{fill:#aaa;}.cls-3{fill:#fff;}.cls-4{fill:#ebf0f9;}.cls-5{fill:#c2d0e1;}.cls-6{fill:#606060;}.cls-7{fill:#ed4245;}.cls-8{fill:#c13038;}</style></defs><title>Asset 300</title><g id="Layer_2" data-name="Layer 2"><g id="Layer_1-2" data-name="Layer 1"><g class="cls-1"><path class="cls-2" d="M5.62,26.88a15.19,15.19,0,0,1,5.48-11.44c3.46-2.67,8.58-3.26,12.27-.91,1.11.71,2.07,1.65,3.18,2.35,3.53,2.22,8.12,1.76,12.09.49s7.73-3.25,11.84-3.93,8.9.34,11.16,3.84,1,8.67-2.22,11.39C56.68,31,52.65,32,51.14,35.29a11.44,11.44,0,0,0-.74,4.56c-.11,4.4-.12,9.15,2.48,12.7a29.31,29.31,0,0,0,4.35,4.2c3.38,3,6.2,7,6.31,11.7a9.82,9.82,0,0,1-.88,4.37C60.27,78,54.83,78.55,50,78.2c-3.7-.28-7.48-1-11.07,0-2.6.69-4.9,2.21-7.4,3.23a20.25,20.25,0,0,1-11.73,1,12.62,12.62,0,0,1-6.42-3.19c-3.59-3.62-3.54-9.43-2.66-14.45s2.33-10.26.74-15.1a17.38,17.38,0,0,0-1.56-3.34A31.46,31.46,0,0,1,5.56,27.55Z"/></g><circle class="cls-3" cx="17.88" cy="19.34" r="3.45"/><circle class="cls-4" cx="33.06" cy="48.13" r="24.16"/><path class="cls-3" d="M57.22,48.13A24.15,24.15,0,0,1,14,62.94,24.15,24.15,0,0,0,47.88,29.06,24,24,0,0,1,57.22,48.13Z"/><path class="cls-5" d="M50.81,31.74l-2.53.1a56.16,56.16,0,0,0-14.95,2.28C22.63,37.65,14.59,46.92,11.07,57.69a23.73,23.73,0,0,1-1.85-9.25,24.14,24.14,0,0,1,41.59-16.7Z"/><path class="cls-6" d="M33.06,73.28A25.16,25.16,0,1,1,58.22,48.13,25.19,25.19,0,0,1,33.06,73.28Zm0-48.31A23.16,23.16,0,1,0,56.22,48.13,23.18,23.18,0,0,0,33.06,25Z"/><path class="cls-7" d="M64,27.35l-5-2.18a1.77,1.77,0,0,0-1.64.12l-4.63,2.89A1.77,1.77,0,0,1,50,26.52l.52-5.44a1.77,1.77,0,0,0-.62-1.53L45.73,16A1.77,1.77,0,0,1,46.48,13l5.33-1.18a1.77,1.77,0,0,0,1.26-1.07l2-5.06a1.77,1.77,0,0,1,3.17-.23l2.77,4.7a1.77,1.77,0,0,0,1.4.87l5.45.38a1.77,1.77,0,0,1,1.2,2.94L65.5,18.4A1.77,1.77,0,0,0,65.1,20l1.32,5.3A1.77,1.77,0,0,1,64,27.35Z"/><path class="cls-8" d="M65.49,18.41a1.74,1.74,0,0,0-.38,1.6l1.31,5.3A1.77,1.77,0,0,1,64,27.36l-5-2.18a1.78,1.78,0,0,0-1.65.13l-4.63,2.88A1.77,1.77,0,0,1,50,26.51l.28-2.86,3.33-2.08a1.78,1.78,0,0,1,1.65-.13l5,2.18a1.77,1.77,0,0,0,2.43-2.05l-1.31-5.3a1.74,1.74,0,0,1,.38-1.6l3.11-3.52,3,.21a1.77,1.77,0,0,1,1.2,2.94Z"/><path class="cls-6" d="M51.77,29.46a2.78,2.78,0,0,1-2.76-3L49.54,21a.77.77,0,0,0-.27-.67l-4.18-3.51A2.77,2.77,0,0,1,46.27,12L51.6,10.8a.77.77,0,0,0,.55-.46l2-5.06a2.77,2.77,0,0,1,5-.37l2.77,4.7a.77.77,0,0,0,.61.38l5.45.38A2.77,2.77,0,0,1,69.86,15l-3.62,4.09a.77.77,0,0,0-.17.7l1.32,5.3a2.77,2.77,0,0,1-3.79,3.21l-5-2.18a.77.77,0,0,0-.72.05L53.24,29A2.77,2.77,0,0,1,51.77,29.46Zm5-23.92h-.06A.75.75,0,0,0,56,6l-2,5.06a2.77,2.77,0,0,1-2,1.67L46.7,13.93a.77.77,0,0,0-.33,1.34l4.18,3.51a2.77,2.77,0,0,1,1,2.39L51,26.61a.77.77,0,0,0,1.18.73l4.63-2.89a2.77,2.77,0,0,1,2.57-.19l5,2.18a.77.77,0,0,0,1.06-.89l-1.32-5.3a2.77,2.77,0,0,1,.61-2.5l3.62-4.09a.77.77,0,0,0-.52-1.28L62.39,12a2.77,2.77,0,0,1-2.19-1.36l-2.77-4.7A.75.75,0,0,0,56.76,5.54Z"/><path class="cls-6" d="M56.3,49.18a1,1,0,0,1-.85-.47l-.67-1.11c-1.13-1.89-2.83-4.74-4-5.76a5.78,5.78,0,0,0-5-1.5,9.31,9.31,0,0,0-3.63,2.33c-.38.33-.75.66-1.14,1a12.39,12.39,0,0,1-7.31,2.93h-.26c-6.91,0-7.94-5.84-8.85-11-.53-3-1.07-6.06-2.7-7.76a1,1,0,1,1,1.44-1.38c2,2.13,2.65,5.52,3.22,8.79,1,5.88,2,9.43,7.1,9.34a10.44,10.44,0,0,0,6.1-2.49c.36-.29.72-.6,1.07-.91a10.9,10.9,0,0,1,4.46-2.76A7.76,7.76,0,0,1,52,40.31c1.46,1.24,3.19,4.14,4.46,6.26l.66,1.09a1,1,0,0,1-.85,1.53Z"/><path class="cls-6" d="M32.36,72.68a1,1,0,0,1-.44-.1c-2.4-1.17-5-6.11-5.13-8.43a14.22,14.22,0,0,1,.33-3.62c.28-1.56.55-3,0-4.27-.75-1.65-2.68-2.39-4.73-3.17l-1.27-.5C16,50.46,11,41.42,10.42,40.39a1,1,0,0,1,1.76-1c2.45,4.52,6.54,10,9.71,11.3l1.22.48c2.22.85,4.75,1.82,5.83,4.21.82,1.8.48,3.66.16,5.45A12.5,12.5,0,0,0,28.79,64c.14,1.86,2.45,6,4,6.79a1,1,0,0,1-.44,1.9Z"/><path class="cls-6" d="M17.88,23.79a4.45,4.45,0,1,1,4.45-4.45A4.46,4.46,0,0,1,17.88,23.79Zm0-6.9a2.45,2.45,0,1,0,2.45,2.45A2.45,2.45,0,0,0,17.88,16.89Z"/><circle class="cls-3" cx="40.77" cy="54.46" r="5.4"/><line class="cls-5" x1="4.49" y1="56.93" x2="4.18" y2="59.11"/><path class="cls-5" d="M4.4,59.59a.53.53,0,0,0,.31-.42L5,57A.53.53,0,0,0,4,56.86L3.66,59a.53.53,0,0,0,.74.56Z"/><line class="cls-5" x1="3.25" y1="57.87" x2="5.42" y2="58.17"/><path class="cls-5" d="M5.63,58.66a.53.53,0,0,0-.14-1l-2.17-.3a.53.53,0,1,0-.15,1.05l2.17.3A.53.53,0,0,0,5.63,58.66Z"/><path class="cls-5" d="M.12,46.41A1.46,1.46,0,1,1,2,47.17,1.47,1.47,0,0,1,.12,46.41Zm.73-.32a.67.67,0,1,0,.35-.87A.67.67,0,0,0,.85,46.09Z"/><circle class="cls-5" cx="3.37" cy="65.59" r="0.8" transform="translate(-25.83 6.76) rotate(-23.46)"/><line class="cls-5" x1="62.7" y1="45.84" x2="61.38" y2="47.59"/><path class="cls-5" d="M61.33,48.12a.53.53,0,0,0,.48-.21l1.32-1.76a.53.53,0,0,0-.85-.64L61,47.27a.53.53,0,0,0,.37.85Z"/><line class="cls-5" x1="61.16" y1="46.06" x2="62.92" y2="47.37"/><path class="cls-5" d="M62.87,47.9a.53.53,0,0,0,.37-1l-1.76-1.32a.53.53,0,0,0-.64.85L62.6,47.8A.53.53,0,0,0,62.87,47.9Z"/><path class="cls-5" d="M60.59,36.33a1.46,1.46,0,1,1,1.32,1.6A1.47,1.47,0,0,1,60.59,36.33Zm.79.08a.67.67,0,1,0,.73-.6A.67.67,0,0,0,61.39,36.41Z"/><circle class="cls-5" cx="61.35" cy="57.52" r="0.8" transform="translate(-1.79 113.06) rotate(-84.49)"/><path class="cls-5" d="M63.77,65a.6.6,0,0,0-1-.1l-.39.54L62,66a.6.6,0,0,0,.43,1l.67.06.67.06a.6.6,0,0,0,.61-.85L64,65.64Z"/><line class="cls-5" x1="29.34" y1="11.66" x2="31.22" y2="10.51"/><path class="cls-5" d="M31.75,10.51a.53.53,0,0,1-.26.45l-1.87,1.14a.53.53,0,1,1-.55-.91l1.87-1.14a.53.53,0,0,1,.81.45Z"/><line class="cls-5" x1="29.71" y1="10.15" x2="30.85" y2="12.02"/><path class="cls-5" d="M31.38,12a.53.53,0,0,1-1,.28l-1.14-1.87a.53.53,0,1,1,.91-.55l1.14,1.87A.53.53,0,0,1,31.38,12Z"/><path class="cls-5" d="M14.1,11.17a1.46,1.46,0,1,1-1.46-1.46A1.47,1.47,0,0,1,14.1,11.17Zm-2.13,0a.67.67,0,1,0,.67-.67A.67.67,0,0,0,12,11.17Z"/><circle class="cls-5" cx="33.65" cy="3.99" r="0.8"/><path class="cls-5" d="M46.22,1.8a.6.6,0,0,1,0-1L46.8.42l.58-.33a.6.6,0,0,1,.91.52V1.94a.6.6,0,0,1-.91.52l-.58-.33Z"/><path class="cls-6" d="M40.77,60.86a6.4,6.4,0,1,1,6.4-6.4A6.41,6.41,0,0,1,40.77,60.86Zm0-10.81a4.4,4.4,0,1,0,4.4,4.4A4.41,4.41,0,0,0,40.77,50.05Z"/></g></g></svg>