<?xml version="1.0"?>
<svg xmlns="http://www.w3.org/2000/svg" id="Capa_1" enable-background="new 0 0 510 510" height="512px" viewBox="0 0 510 510" width="512px"><g><path d="m159.241 275.693c15.477-2.551 23.622-2.062 54.09-2.062-70.92-84.438-52.809-212.496 40.56-273.621-84.401 1.021-152.751 70.08-152.751 154.816.001 48.835 22.701 92.465 58.101 120.867z" data-original="#000000" class="active-path" data-old_color="#000000" fill="#FFFFFF"/><path d="m255.632 273.641h40.34c24.963 0 45.992 15.077 55.23 35.971 85.786 2.241 158.141-67.52 158.141-154.786.001-85.347-69.339-154.826-154.65-154.826-144.798 0-209.29 181.354-99.061 273.641zm84.061-198.095v-12.725c0-8.29 6.72-15.017 15-15.017 8.29 0 15 6.727 15 15.017v12.724c7.218 0 13.616.839 21.1 3.804v.01c7.54 2.983 14.46 7.659 20.16 13.746 5.67 6.047 5.36 15.558-.69 21.224-6.307 5.89-15.839 5.124-21.2-.691-4.74-5.056-11.21-7.989-17.77-8.059h-34.47c-9.411 0-17.09 7.616-17.09 17.12 0 9.431 7.67 17.109 17.09 17.109h35.74c25.969 0 47.1 21.155 47.1 47.154 0 23.147-16.987 47.143-49.97 47.143v12.724c0 8.299-6.71 15.017-15 15.017-8.28 0-15-6.718-15-15.017v-12.724c-5.854 0-19.875.926-35.65-10.031-6.81-4.735-8.5-14.086-3.77-20.904 4.72-6.818 14.07-8.51 20.87-3.774 3.916 2.744 8.926 4.63 13.84 4.675h37.59c9.481 0 17.09-7.682 17.09-17.109 0-9.441-7.67-17.12-17.1-17.12-13.218 0-22.521 0-35.74 0-25.96 0-47.09-21.144-47.09-47.143-.001-24.131 18.185-47.153 49.96-47.153z" data-original="#000000" class="active-path" data-old_color="#000000" fill="#FFFFFF"/><path d="m500.244 373.965c-13.008-13.023-34.117-13.059-47.16 0l-48.94 48.996c-5.36 5.356-12.63 8.38-20.21 8.38h-127.402c-18.45 0-33.4-14.967-33.4-33.428 0-18.491 14.98-33.448 33.4-33.448h38.8c16.705 0 30.617-13.169 30.98-29.684.398-17.141-13.386-31.105-30.34-31.105-101.861 0-38.941-.01-111.501-.01-37.01 0-72.207 16.482-95.941 45.111l-18.079 22.98c-.948 1.205-2.396 1.908-3.928 1.908h-56.523c-5.523 0-10 4.482-10 10.011v116.312c0 5.53 4.477 10.012 10 10.012h386.333c9.72 0 19.03-3.864 25.89-10.732l78.011-78.099c13.03-13.035 13.01-34.149.01-47.204z" data-original="#000000" class="active-path" data-old_color="#000000" fill="#FFFFFF"/></g> </svg>
